<svg width="16" height="16" viewBox="0 0 16 16" fill="none" xmlns="http://www.w3.org/2000/svg">
<path d="M11.0001 2V4" stroke="#666E6D" stroke-width="1.15" stroke-linecap="round" stroke-linejoin="round"/>
<rect x="2" y="3" width="12" height="11" rx="3" stroke="#666E6D" stroke-width="1.5" stroke-linecap="round" stroke-linejoin="round"/>
<path d="M11.0334 6.66655C11.0334 6.64815 11.0185 6.63324 11.0001 6.63325C10.9817 6.63326 10.9668 6.64817 10.9667 6.66657C10.9667 6.68497 10.9816 6.6999 11 6.69992C11.0089 6.69993 11.0174 6.69642 11.0237 6.69016C11.0299 6.68389 11.0334 6.6754 11.0334 6.66655" stroke="#666E6D" stroke-width="1.15" stroke-linecap="round" stroke-linejoin="round"/>
<path d="M8.03341 6.66655C8.03339 6.64815 8.01847 6.63324 8.00007 6.63325C7.98167 6.63326 7.96676 6.64817 7.96675 6.66657C7.96674 6.68497 7.98164 6.6999 8.00004 6.69992C8.0089 6.69993 8.01739 6.69642 8.02365 6.69016C8.02991 6.68389 8.03343 6.6754 8.03341 6.66655" stroke="#666E6D" stroke-width="1.15" stroke-linecap="round" stroke-linejoin="round"/>
<path d="M10.6666 10.4096V9.07593H9.33325" stroke="#666E6D" stroke-width="1.15" stroke-linecap="round" stroke-linejoin="round"/>
<path d="M5.33325 9.59986C6.35104 10.7122 7.99563 10.9883 9.32089 10.2693C9.81794 9.99869 10.2263 9.59032 10.497 9.09326" stroke="#666E6D" stroke-width="1.5" stroke-linecap="round" stroke-linejoin="round"/>
<path d="M5.03341 6.66655C5.03339 6.64815 5.01847 6.63324 5.00007 6.63325C4.98167 6.63326 4.96676 6.64817 4.96675 6.66657C4.96674 6.68497 4.98164 6.6999 5.00004 6.69992C5.0089 6.69993 5.01739 6.69642 5.02365 6.69016C5.02991 6.68389 5.03343 6.6754 5.03341 6.66655" stroke="#666E6D" stroke-width="1.5" stroke-linecap="round" stroke-linejoin="round"/>
</svg>
