<svg width="16" height="16" viewBox="0 0 16 16" fill="none" xmlns="http://www.w3.org/2000/svg">
<path d="M5 7.5H11C11.1326 7.5 11.2598 7.44732 11.3536 7.35355C11.4473 7.25979 11.5 7.13261 11.5 7V4C11.5 3.86739 11.4473 3.74021 11.3536 3.64645C11.2598 3.55268 11.1326 3.5 11 3.5H5C4.86739 3.5 4.74021 3.55268 4.64645 3.64645C4.55268 3.74021 4.5 3.86739 4.5 4V7C4.5 7.13261 4.55268 7.25979 4.64645 7.35355C4.74021 7.44732 4.86739 7.5 5 7.5ZM5.5 4.5H10.5V6.5H5.5V4.5ZM12.5 1.5H3.5C3.23478 1.5 2.98043 1.60536 2.79289 1.79289C2.60536 1.98043 2.5 2.23478 2.5 2.5V13.5C2.5 13.7652 2.60536 14.0196 2.79289 14.2071C2.98043 14.3946 3.23478 14.5 3.5 14.5H12.5C12.7652 14.5 13.0196 14.3946 13.2071 14.2071C13.3946 14.0196 13.5 13.7652 13.5 13.5V2.5C13.5 2.23478 13.3946 1.98043 13.2071 1.79289C13.0196 1.60536 12.7652 1.5 12.5 1.5ZM12.5 13.5H3.5V2.5H12.5V13.5ZM6.25 9.25C6.25 9.39834 6.20601 9.54334 6.1236 9.66668C6.04119 9.79001 5.92406 9.88614 5.78701 9.94291C5.64997 9.99967 5.49917 10.0145 5.35368 9.98559C5.2082 9.95665 5.07456 9.88522 4.96967 9.78033C4.86478 9.67544 4.79335 9.5418 4.76441 9.39632C4.73547 9.25083 4.75032 9.10003 4.80709 8.96299C4.86386 8.82594 4.95999 8.70881 5.08332 8.6264C5.20666 8.54399 5.35166 8.5 5.5 8.5C5.69891 8.5 5.88968 8.57902 6.03033 8.71967C6.17098 8.86032 6.25 9.05109 6.25 9.25ZM8.75 9.25C8.75 9.39834 8.70601 9.54334 8.6236 9.66668C8.54119 9.79001 8.42406 9.88614 8.28701 9.94291C8.14997 9.99967 7.99917 10.0145 7.85368 9.98559C7.7082 9.95665 7.57456 9.88522 7.46967 9.78033C7.36478 9.67544 7.29335 9.5418 7.26441 9.39632C7.23547 9.25083 7.25032 9.10003 7.30709 8.96299C7.36386 8.82594 7.45999 8.70881 7.58332 8.6264C7.70666 8.54399 7.85166 8.5 8 8.5C8.19891 8.5 8.38968 8.57902 8.53033 8.71967C8.67098 8.86032 8.75 9.05109 8.75 9.25ZM11.25 9.25C11.25 9.39834 11.206 9.54334 11.1236 9.66668C11.0412 9.79001 10.9241 9.88614 10.787 9.94291C10.65 9.99967 10.4992 10.0145 10.3537 9.98559C10.2082 9.95665 10.0746 9.88522 9.96967 9.78033C9.86478 9.67544 9.79335 9.5418 9.76441 9.39632C9.73547 9.25083 9.75033 9.10003 9.80709 8.96299C9.86386 8.82594 9.95999 8.70881 10.0833 8.6264C10.2067 8.54399 10.3517 8.5 10.5 8.5C10.6989 8.5 10.8897 8.57902 11.0303 8.71967C11.171 8.86032 11.25 9.05109 11.25 9.25ZM6.25 11.75C6.25 11.8983 6.20601 12.0433 6.1236 12.1667C6.04119 12.29 5.92406 12.3861 5.78701 12.4429C5.64997 12.4997 5.49917 12.5145 5.35368 12.4856C5.2082 12.4566 5.07456 12.3852 4.96967 12.2803C4.86478 12.1754 4.79335 12.0418 4.76441 11.8963C4.73547 11.7508 4.75032 11.6 4.80709 11.463C4.86386 11.3259 4.95999 11.2088 5.08332 11.1264C5.20666 11.044 5.35166 11 5.5 11C5.69891 11 5.88968 11.079 6.03033 11.2197C6.17098 11.3603 6.25 11.5511 6.25 11.75ZM8.75 11.75C8.75 11.8983 8.70601 12.0433 8.6236 12.1667C8.54119 12.29 8.42406 12.3861 8.28701 12.4429C8.14997 12.4997 7.99917 12.5145 7.85368 12.4856C7.7082 12.4566 7.57456 12.3852 7.46967 12.2803C7.36478 12.1754 7.29335 12.0418 7.26441 11.8963C7.23547 11.7508 7.25032 11.6 7.30709 11.463C7.36386 11.3259 7.45999 11.2088 7.58332 11.1264C7.70666 11.044 7.85166 11 8 11C8.19891 11 8.38968 11.079 8.53033 11.2197C8.67098 11.3603 8.75 11.5511 8.75 11.75ZM11.25 11.75C11.25 11.8983 11.206 12.0433 11.1236 12.1667C11.0412 12.29 10.9241 12.3861 10.787 12.4429C10.65 12.4997 10.4992 12.5145 10.3537 12.4856C10.2082 12.4566 10.0746 12.3852 9.96967 12.2803C9.86478 12.1754 9.79335 12.0418 9.76441 11.8963C9.73547 11.7508 9.75033 11.6 9.80709 11.463C9.86386 11.3259 9.95999 11.2088 10.0833 11.1264C10.2067 11.044 10.3517 11 10.5 11C10.6989 11 10.8897 11.079 11.0303 11.2197C11.171 11.3603 11.25 11.5511 11.25 11.75Z" fill="#666E6D"/>
</svg>
