<svg width="16" height="16" viewBox="0 0 16 16" fill="none" xmlns="http://www.w3.org/2000/svg">
<path fill-rule="evenodd" clip-rule="evenodd" d="M10.1438 6.95229C11.3347 6.90898 12.2799 5.935 12.2875 4.74337C12.2691 3.57759 11.3096 2.64721 10.1438 2.6648" fill="#F9FAFA"/>
<path d="M10.1438 6.95229C11.3347 6.90898 12.2799 5.935 12.2875 4.74337C12.2691 3.57759 11.3096 2.64721 10.1438 2.6648" stroke="#666E6D" stroke-width="1.15" stroke-linecap="round" stroke-linejoin="round"/>
<path fill-rule="evenodd" clip-rule="evenodd" d="M6.2851 6.95229C7.47597 6.90899 8.42122 5.935 8.42886 4.74337C8.41045 3.57759 7.4509 2.64721 6.2851 2.6648C5.1193 2.64721 4.15976 3.57759 4.14136 4.74337C4.1487 5.93512 5.09411 6.90928 6.2851 6.95229V6.95229Z" stroke="#666E6D" stroke-width="1.15" stroke-linecap="round" stroke-linejoin="round"/>
<path d="M10.6678 13.3357V12.0018C10.6678 10.5284 9.47343 9.33398 8.00006 9.33398H4.66534C3.19196 9.33398 1.99756 10.5284 1.99756 12.0018V13.3357" stroke="#666E6D" stroke-width="1.15" stroke-linecap="round" stroke-linejoin="round"/>
<path d="M14.0025 13.3357V11.3348C14.0025 10.2298 13.1067 9.33398 12.0017 9.33398" stroke="#666E6D" stroke-width="1.15" stroke-linecap="round" stroke-linejoin="round"/>
</svg>
