<svg width="16" height="16" viewBox="0 0 16 16" fill="none" xmlns="http://www.w3.org/2000/svg">
<path d="M3.83133 9.83422C3.7393 9.83446 3.66487 9.90921 3.66503 10.0012C3.66519 10.0933 3.73988 10.1678 3.83191 10.1677C3.92394 10.1676 3.9985 10.093 3.9985 10.001C3.9983 9.90878 3.9235 9.83417 3.83132 9.83422" stroke="#666E6D" stroke-width="1.15" stroke-linecap="round" stroke-linejoin="round"/>
<path d="M6.66619 9.00049C7.2187 9.00049 7.6666 9.44839 7.6666 10.0009C7.6666 10.5534 7.2187 11.0013 6.66619 11.0013C6.11367 11.0013 5.66577 10.5534 5.66577 10.0009C5.66577 9.44839 6.11367 9.00049 6.66619 9.00049" stroke="#666E6D" stroke-width="1.15" stroke-linecap="round" stroke-linejoin="round"/>
<path fill-rule="evenodd" clip-rule="evenodd" d="M11.3348 8.00015V12.0018C11.3348 12.7385 10.7376 13.3357 10.0009 13.3357H3.33071C2.97704 13.3356 2.63789 13.195 2.38788 12.9449C2.13786 12.6947 1.99746 12.3555 1.99756 12.0018V7.99942C1.99765 7.64574 2.13824 7.30659 2.3884 7.05658C2.63855 6.80656 2.97777 6.66616 3.33145 6.66626H10.0016C10.3553 6.66636 10.6944 6.80694 10.9445 7.0571C11.1945 7.30725 11.3349 7.64648 11.3348 8.00015Z" stroke="#666E6D" stroke-width="1.15" stroke-linecap="round" stroke-linejoin="round"/>
<path d="M9.50114 10.1677C9.59317 10.1674 9.6676 10.0927 9.66744 10.0007C9.66729 9.90863 9.59259 9.83414 9.50056 9.83422C9.40854 9.8343 9.33397 9.90892 9.33397 10.001C9.33417 10.0931 9.40897 10.1677 9.50115 10.1677" stroke="#666E6D" stroke-width="1.15" stroke-linecap="round" stroke-linejoin="round"/>
<path d="M4.13037 6.66611L4.93759 3.65352L4.93779 3.65286C5.02942 3.31125 5.25299 3.02004 5.55934 2.84328C5.86568 2.66652 6.22969 2.6187 6.57129 2.71033L13.0134 4.43646L13.0141 4.43667C13.3557 4.52829 13.6469 4.75187 13.8237 5.05821C14.0004 5.36455 14.0482 5.72857 13.9566 6.07016L12.9209 9.93547C12.7345 10.6279 12.0333 11.0483 11.3347 10.8864" stroke="#666E6D" stroke-width="1.5" stroke-linecap="round" stroke-linejoin="round"/>
</svg>
