<svg width="16" height="16" viewBox="0 0 16 16" fill="none" xmlns="http://www.w3.org/2000/svg">
<path fill-rule="evenodd" clip-rule="evenodd" d="M10.6666 12.3044V8.83325V12.3044Z" fill="#F9FAFA"/>
<path d="M10.6666 12.3044V8.83325" stroke="#666E6D" stroke-width="1.15" stroke-linecap="round" stroke-linejoin="round"/>
<path d="M5.33333 12.3087V8.83325" stroke="#666E6D" stroke-width="1.15" stroke-linecap="round" stroke-linejoin="round"/>
<path d="M3.38887 5.33325L2.32369 5.97238C2.12288 6.09286 2 6.30986 2 6.54404V12.9891C1.99999 13.2293 2.12918 13.4509 2.33818 13.5692C2.54719 13.6876 2.80369 13.6844 3.00965 13.5608L4.94893 12.3973C5.18136 12.2578 5.4751 12.2729 5.69193 12.4356L7.6 13.8666C7.83703 14.0444 8.16297 14.0444 8.4 13.8666L10.3081 12.4356C10.5249 12.2729 10.8187 12.2578 11.0511 12.3972L12.9904 13.5608C13.1963 13.6844 13.4528 13.6876 13.6618 13.5692C13.8708 13.4509 14 13.2293 14 12.9891V6.54404C14 6.30986 13.8771 6.09286 13.6763 5.97237L12.6111 5.33325" stroke="#666E6D" stroke-width="1.5" stroke-linecap="round" stroke-linejoin="round"/>
<path d="M8.00008 10.1667V13.9991" stroke="#666E6D" stroke-width="1.5" stroke-linecap="round" stroke-linejoin="round"/>
<path d="M5.33325 3.99992V3.99992C5.33325 2.52716 6.52716 1.33325 7.99992 1.33325V1.33325C9.47268 1.33325 10.6666 2.52716 10.6666 3.99992V3.99992" stroke="#666E6D" stroke-width="1.5" stroke-linecap="round" stroke-linejoin="round"/>
<path d="M5.33325 4C5.33325 5.20437 6.66213 6.48991 7.44363 7.14205C7.77024 7.39697 8.22838 7.39709 8.55512 7.14234C9.33733 6.4903 10.6666 5.20457 10.6666 4" stroke="#666E6D" stroke-width="1.5" stroke-linecap="round" stroke-linejoin="round"/>
<path d="M8.00075 3.7592C8.09271 3.75957 8.16699 3.83435 8.16675 3.92631C8.1665 4.01827 8.09182 4.09265 7.99986 4.09253C7.9079 4.09241 7.83342 4.01783 7.83342 3.92587C7.83318 3.88148 7.85076 3.83885 7.88221 3.80752C7.91366 3.77619 7.95636 3.75879 8.00075 3.7592" stroke="#666E6D" stroke-width="1.5" stroke-linecap="round" stroke-linejoin="round"/>
</svg>
