<svg width="16" height="16" viewBox="0 0 16 16" fill="none" xmlns="http://www.w3.org/2000/svg">
<path d="M14.0059 12.0053C13.4711 11.9916 12.9542 12.198 12.576 12.5762C12.1977 12.9545 11.9913 13.4714 12.005 14.0061" stroke="#666E6D" stroke-width="1.15" stroke-linecap="round" stroke-linejoin="round"/>
<path d="M10.0042 14.0061C10.0075 13.5243 10.0902 13.0464 10.2489 12.5915C10.6294 11.4926 11.493 10.629 12.5919 10.2485C13.0467 10.0903 13.5243 10.0079 14.0058 10.0044" stroke="#666E6D" stroke-width="1.15" stroke-linecap="round" stroke-linejoin="round"/>
<path d="M8.00322 7.95762C7.99107 7.95762 7.97943 7.96249 7.97091 7.97114C7.96239 7.97979 7.95769 7.9915 7.95787 8.00364C7.95787 8.02232 7.96915 8.03914 7.98643 8.04622C8.00371 8.0533 8.02355 8.04924 8.03666 8.03594C8.04977 8.02264 8.05354 8.00274 8.04621 7.98556C8.03887 7.96839 8.02189 7.95735 8.00322 7.95762" stroke="#666E6D" stroke-width="1.15" stroke-linecap="round" stroke-linejoin="round"/>
<path d="M10.2495 7.95762C10.2241 7.95762 10.2035 7.97822 10.2035 8.00364C10.2035 8.02905 10.2241 8.04966 10.2495 8.04966C10.2749 8.04966 10.2955 8.02905 10.2955 8.00364C10.2955 7.97822 10.2749 7.95762 10.2495 7.95762" stroke="#666E6D" stroke-width="1.15" stroke-linecap="round" stroke-linejoin="round"/>
<path d="M5.75639 7.95762C5.74425 7.95762 5.73261 7.96249 5.72408 7.97114C5.71556 7.97979 5.71086 7.9915 5.71104 8.00364C5.71104 8.02232 5.72233 8.03914 5.7396 8.04622C5.75688 8.0533 5.77673 8.04924 5.78984 8.03594C5.80294 8.02264 5.80671 8.00274 5.79938 7.98556C5.79205 7.96839 5.77506 7.95735 5.75639 7.95762" stroke="#666E6D" stroke-width="1.15" stroke-linecap="round" stroke-linejoin="round"/>
<path d="M7.33629 14.006H4.00157C2.89654 14.006 2.00073 13.1102 2.00073 12.0051V4.00181C2.00073 2.89678 2.89654 2.00098 4.00157 2.00098H12.0049C13.1099 2.00098 14.0057 2.89678 14.0057 4.00181V7.33653" stroke="#666E6D" stroke-width="1.5" stroke-linecap="round" stroke-linejoin="round"/>
</svg>
