<svg width="18" height="18" viewBox="0 0 18 18" fill="none" xmlns="http://www.w3.org/2000/svg">
<path d="M2.57495 10.575H5.49628C5.74895 10.575 5.97962 10.7176 6.09228 10.9436L6.39028 11.5396C6.50362 11.7656 6.73428 11.9083 6.98695 11.9083H10.163C10.4156 11.9083 10.6463 11.7656 10.759 11.5396L11.057 10.9436C11.1703 10.7176 11.401 10.575 11.6536 10.575H14.575" stroke="#666E6D" stroke-width="1.15" stroke-linecap="round" stroke-linejoin="round"/>
<path fill-rule="evenodd" clip-rule="evenodd" d="M0.574951 4.57495C0.574951 2.36581 2.36581 0.574951 4.57495 0.574951H12.575C14.7841 0.574951 16.575 2.36581 16.575 4.57495V12.575C16.575 14.7841 14.7841 16.575 12.575 16.575H4.57495C2.36581 16.575 0.574951 14.7841 0.574951 12.575V4.57495Z" stroke="#666E6D" stroke-width="1.15"/>
</svg>
