<svg width="16" height="16" viewBox="0 0 16 16" fill="none" xmlns="http://www.w3.org/2000/svg">
<path fill-rule="evenodd" clip-rule="evenodd" d="M4.13062 4.13062H6.66662V6.66662H4.13062V4.13062Z" stroke="#666E6D" stroke-width="1.15" stroke-linecap="round" stroke-linejoin="round"/>
<path fill-rule="evenodd" clip-rule="evenodd" d="M4.08008 9.41333H6.66674V12H4.08008V9.41333Z" stroke="#666E6D" stroke-width="1.15" stroke-linecap="round" stroke-linejoin="round"/>
<path d="M9.33333 10.6666V9.33325" stroke="#666E6D" stroke-width="1.15" stroke-linecap="round" stroke-linejoin="round"/>
<path d="M11.8668 11.8668H10.5334" stroke="#666E6D" stroke-width="1.15" stroke-linecap="round" stroke-linejoin="round"/>
<path fill-rule="evenodd" clip-rule="evenodd" d="M11.9199 6.58643H9.33326V3.99976L11.9199 3.99976V6.58643Z" stroke="#666E6D" stroke-width="1.15" stroke-linecap="round" stroke-linejoin="round"/>
<path d="M14.3334 5.31875V3.00008C14.3334 2.26341 13.7367 1.66675 13.0001 1.66675H10.6814" stroke="#666E6D" stroke-width="1.5" stroke-linecap="round" stroke-linejoin="round"/>
<path d="M10.8667 9.33333H11.8667" stroke="#666E6D" stroke-width="1.5" stroke-linecap="round" stroke-linejoin="round"/>
<path d="M5.31875 1.66675H3.00008C2.26341 1.66675 1.66675 2.26341 1.66675 3.00008V5.31875" stroke="#666E6D" stroke-width="1.5" stroke-linecap="round" stroke-linejoin="round"/>
<path d="M1.66675 10.6814V13.0001C1.66675 13.7367 2.26341 14.3334 3.00008 14.3334H5.31875" stroke="#666E6D" stroke-width="1.5" stroke-linecap="round" stroke-linejoin="round"/>
<path d="M10.6814 14.3334H13.0001C13.7367 14.3334 14.3334 13.7367 14.3334 13.0001V10.6814" stroke="#666E6D" stroke-width="1.5" stroke-linecap="round" stroke-linejoin="round"/>
</svg>
