<svg width="16" height="16" viewBox="0 0 16 16" fill="none" xmlns="http://www.w3.org/2000/svg">
<path d="M9.17843 7.32165C9.8293 7.97253 9.8293 9.0278 9.17843 9.67867C8.52755 10.3295 7.47228 10.3295 6.82141 9.67867C6.17053 9.0278 6.17053 7.97252 6.82141 7.32165C7.47228 6.67078 8.52755 6.67078 9.17843 7.32165" stroke="#666E6D" stroke-width="1.5" stroke-linecap="round" stroke-linejoin="round"/>
<path d="M12.8359 3.32165C13.4868 3.97253 13.4868 5.0278 12.8359 5.67867C12.185 6.32955 11.1298 6.32955 10.4789 5.67867C9.828 5.0278 9.828 3.97252 10.4789 3.32165C11.1298 2.67078 12.185 2.67078 12.8359 3.32165" stroke="#666E6D" stroke-width="1.15" stroke-linecap="round" stroke-linejoin="round"/>
<path d="M12 8.1665C13.022 8.1665 14 8.52184 14.6667 9.05517" stroke="#666E6D" stroke-width="1.15" stroke-linecap="round" stroke-linejoin="round"/>
<path d="M5.5212 3.32165C6.17207 3.97253 6.17207 5.0278 5.5212 5.67867C4.87033 6.32955 3.81505 6.32955 3.16418 5.67867C2.51331 5.0278 2.51331 3.97252 3.16418 3.32165C3.81505 2.67078 4.87033 2.67078 5.5212 3.32165" stroke="#666E6D" stroke-width="1.15" stroke-linecap="round" stroke-linejoin="round"/>
<path d="M1.33325 9.05517C1.99992 8.52184 2.97792 8.1665 3.99992 8.1665" stroke="#666E6D" stroke-width="1.15" stroke-linecap="round" stroke-linejoin="round"/>
<path d="M11.0608 13.1665C10.2841 12.5658 9.16812 12.1665 8.00012 12.1665C6.83212 12.1665 5.71612 12.5658 4.93945 13.1665" stroke="#666E6D" stroke-width="1.15" stroke-linecap="round" stroke-linejoin="round"/>
</svg>
