<svg width="16" height="16" viewBox="0 0 16 16" fill="none" xmlns="http://www.w3.org/2000/svg">
<path d="M5.99927 13.3356H3.93175C3.59562 13.3358 3.27322 13.2023 3.03554 12.9646C2.79786 12.7269 2.6644 12.4045 2.66455 12.0684V3.26475C2.6644 2.92863 2.79786 2.60622 3.03554 2.36855C3.27322 2.13087 3.59562 1.99741 3.93175 1.99756H10.0009C10.3371 1.99741 10.6595 2.13087 10.8971 2.36855C11.1348 2.60622 11.2683 2.92863 11.2681 3.26475V5.99923" stroke="#666E6D" stroke-width="1.15" stroke-linecap="round" stroke-linejoin="round"/>
<path d="M5.97984 8.78627C5.36121 8.16764 5.36121 7.16464 5.97984 6.54601C6.59848 5.92737 7.60148 5.92737 8.22011 6.54601" stroke="#666E6D" stroke-width="1.15" stroke-linecap="round" stroke-linejoin="round"/>
<path d="M5.33223 11.3349H4.66528" stroke="#666E6D" stroke-width="1.15" stroke-linecap="round" stroke-linejoin="round"/>
<path d="M9.33394 3.99851H8.66699" stroke="#666E6D" stroke-width="1.15" stroke-linecap="round" stroke-linejoin="round"/>
<path d="M8 9.06738V13.6026C8.00076 14.1918 9.1944 14.6697 10.6678 14.6697C12.1412 14.6697 13.3348 14.1918 13.3356 13.6026V9.06738" stroke="#666E6D" stroke-width="1.15" stroke-linecap="round" stroke-linejoin="round"/>
<path d="M13.3348 9.06711C13.3348 9.65631 12.1404 10.1342 10.667 10.1342C9.19364 10.1342 8 9.65631 8 9.06711C8 8.47715 9.19516 8 10.6678 8C12.1404 8 13.3348 8.47791 13.3356 9.06711" stroke="#666E6D" stroke-width="1.5" stroke-linecap="round" stroke-linejoin="round"/>
<path d="M8.00049 11.335C8.00049 11.9242 9.19413 12.4021 10.6675 12.4021C12.1409 12.4021 13.3353 11.9242 13.3353 11.335" stroke="#666E6D" stroke-width="1.5" stroke-linecap="round" stroke-linejoin="round"/>
</svg>
