<svg width="16" height="16" viewBox="0 0 16 16" fill="none" xmlns="http://www.w3.org/2000/svg">
<path d="M10.6679 14.6697L9.33398 13.3358L10.6679 12.002" stroke="#666E6D" stroke-width="1.15" stroke-linecap="round" stroke-linejoin="round"/>
<path d="M13.3357 13.3359H9.33398" stroke="#666E6D" stroke-width="1.15" stroke-linecap="round" stroke-linejoin="round"/>
<path fill-rule="evenodd" clip-rule="evenodd" d="M5.20599 9.3952C4.75689 8.9461 4.75689 8.21796 5.206 7.76886L7.76887 5.20598C8.21798 4.75688 8.94612 4.75688 9.39522 5.20598L10.7944 6.60518C11.2435 7.05429 11.2435 7.78243 10.7944 8.23153L8.23155 10.7944C7.78244 11.2435 7.0543 11.2435 6.6052 10.7944L5.20599 9.3952Z" stroke="#666E6D" stroke-width="1.15" stroke-linecap="round" stroke-linejoin="round"/>
<path d="M8.16696 8.00019C8.16684 8.09222 8.09218 8.16675 8.00015 8.16671C7.90812 8.16667 7.83352 8.09208 7.83348 8.00005C7.83344 7.90802 7.90798 7.83336 8.00001 7.83324C8.0443 7.83318 8.0868 7.85075 8.11812 7.88208C8.14944 7.9134 8.16701 7.95589 8.16696 8.00019" stroke="#666E6D" stroke-width="1.15" stroke-linecap="round" stroke-linejoin="round"/>
<path d="M13.3714 10.6681C14.5091 8.37812 14.0706 5.61873 12.279 3.79431C10.4874 1.9699 7.7364 1.48135 5.42616 2.57731C3.11593 3.67328 1.75408 6.11293 2.03373 8.65461C2.31338 11.1963 4.17309 13.2815 6.66635 13.8489" stroke="#666E6D" stroke-width="1.15" stroke-linecap="round" stroke-linejoin="round"/>
</svg>
