<svg width="7" height="4" viewBox="0 0 7 4" fill="none" xmlns="http://www.w3.org/2000/svg">
<path d="M6.499 0C6.925 0 7.1475 0.493 6.8905 0.8115L6.8525 0.8535L3.8525 3.8535C3.7664 3.93959 3.65185 3.9913 3.53034 3.99894C3.40883 4.00658 3.2887 3.96963 3.1925 3.895L3.1455 3.8535L0.1455 0.8535L0.104 0.8065L0.0770001 0.768L0.0500002 0.72L0.0415001 0.702L0.0280001 0.6685L0.0120001 0.6145L0.00699997 0.588L0.00200009 0.558L0 0.5295V0.4705L0.00250006 0.4415L0.00699997 0.4115L0.0120001 0.3855L0.0280001 0.3315L0.0415001 0.298L0.0765002 0.232L0.109 0.187L0.1455 0.1465L0.1925 0.105L0.231 0.0780001L0.279 0.0510001L0.297 0.0425L0.3305 0.0289998L0.3845 0.013L0.411 0.0079999L0.441 0.00299978L0.4695 0.000999928L6.499 0Z" fill="#666E6D"/>
</svg>
