<svg width="265" height="186" viewBox="0 0 265 186" fill="none" xmlns="http://www.w3.org/2000/svg">
<rect x="82.7969" y="45.8223" width="100" height="100" rx="50" fill="#049228"/>
<g filter="url(#filter0_d_2456_66231)">
<rect x="102.797" y="65.8223" width="60" height="60" rx="30" fill="white" shape-rendering="crispEdges"/>
<path fill-rule="evenodd" clip-rule="evenodd" d="M143.681 88.6884C144.169 89.1765 144.169 89.968 143.681 90.4561L131.181 102.956C130.693 103.444 129.901 103.444 129.413 102.956L123.163 96.7061C122.675 96.218 122.675 95.4265 123.163 94.9384C123.651 94.4502 124.443 94.4502 124.931 94.9384L130.297 100.304L141.913 88.6884C142.401 88.2002 143.193 88.2002 143.681 88.6884Z" fill="#090F0D"/>
</g>
<path fill-rule="evenodd" clip-rule="evenodd" d="M62.0124 63.571C59.7882 61.6773 57.4789 59.8369 55.1842 58.0321C55.1465 59.6509 55.3487 61.1607 55.6143 62.7598C54.2112 62.8891 52.1051 63.5504 50.847 64.1706C51.4314 65.8783 52.0759 67.2206 52.9377 68.768C51.657 69.3812 50.5475 70.0807 49.455 70.9964C52.0779 71.7841 54.7362 72.3934 57.4351 72.8544C57.9291 71.5789 58.1112 70.3572 58.6739 69.1062C59.6407 66.9563 60.5968 65.4752 62.0124 63.571Z" fill="#D9EDF9" stroke="#0189D5" stroke-miterlimit="1.5" stroke-linecap="round" stroke-linejoin="round"/>
<path fill-rule="evenodd" clip-rule="evenodd" d="M45.7812 75.8262C46.3261 75.3058 46.8916 74.8035 47.4259 74.2724Z" fill="#D9EDF9"/>
<path d="M45.7812 75.8262C46.3261 75.3058 46.8916 74.8035 47.4259 74.2724" stroke="#0189D5" stroke-miterlimit="1.5" stroke-linecap="round" stroke-linejoin="round"/>
<path fill-rule="evenodd" clip-rule="evenodd" d="M41.6641 66.1992C42.4979 66.2748 43.3353 66.2853 44.1696 66.3486Z" fill="#D9EDF9"/>
<path d="M41.6641 66.1992C42.4979 66.2748 43.3353 66.2853 44.1696 66.3486" stroke="#0189D5" stroke-miterlimit="1.5" stroke-linecap="round" stroke-linejoin="round"/>
<path fill-rule="evenodd" clip-rule="evenodd" d="M47.7674 58.7694C47.15 57.8106 46.4373 56.9175 45.8177 55.9605Z" fill="#D9EDF9"/>
<path d="M47.7674 58.7694C47.15 57.8106 46.4373 56.9175 45.8177 55.9605" stroke="#0189D5" stroke-miterlimit="1.5" stroke-linecap="round" stroke-linejoin="round"/>
<path fill-rule="evenodd" clip-rule="evenodd" d="M57.2411 53.8558C57.2797 52.7275 57.3364 51.5798 57.274 50.4514Z" fill="#D9EDF9"/>
<path d="M57.2411 53.8558C57.2797 52.7275 57.3364 51.5798 57.274 50.4514" stroke="#0189D5" stroke-miterlimit="1.5" stroke-linecap="round" stroke-linejoin="round"/>
<path fill-rule="evenodd" clip-rule="evenodd" d="M86.3438 42.0684C85.562 39.4938 83.6811 37.2926 80.9027 36.5108C79.8268 36.2081 78.7146 36.3376 77.6303 36.4984C81.7441 34.9705 81.7332 30.1141 81.1853 26.5341C81.9949 29.6391 84.6677 32.3947 87.9994 31.6226C85.4154 34.5936 85.472 38.4492 86.3438 42.0684Z" stroke="#A259FF" stroke-miterlimit="1.5" stroke-linecap="round" stroke-linejoin="round"/>
<g style="mix-blend-mode:hard-light">
<path d="M225.957 101.033L226.637 101.558L227.368 102.386L228.021 103.258L228.56 104.112L229.143 105.116L229.495 105.784L229.932 106.636L230.273 107.42L230.622 108.27L230.988 109.247L231.199 109.872L231.387 110.569L231.443 110.902L231.461 111.174L231.436 111.441L231.319 111.653L231.088 111.839L230.887 111.994L230.532 112.152L230.151 112.302L229.635 112.444L229.224 112.563L228.949 112.63L228.723 112.652L228.463 112.628L228.168 112.506L228.01 112.327L227.42 110.881L226.732 109.322L225.945 107.698L225.241 106.362L224.663 105.371L224.742 106.084L224.891 107.171L225.06 108.145L225.222 108.975L225.357 109.623L225.683 111.082L225.865 111.931L225.979 112.511L226.039 112.856L226.06 113.039L226.031 113.222L225.954 113.406L225.802 113.561L225.556 113.735L225.114 113.95L224.187 114.255L223.767 114.358L223.484 114.402L223.267 114.381L222.996 114.355L222.877 114.344L222.701 114.234L222.469 114.026L222.215 113.706L221.671 112.872L220.691 111.159L220.779 111.725L220.908 112.788L220.978 113.594L220.966 114.123L220.939 114.46L220.913 114.676L220.829 114.876L220.716 115.079L220.568 115.262L220.384 115.403L220.17 115.525L219.901 115.647L219.573 115.769L219.182 115.901L218.816 116.014L218.458 116.095L218.032 116.147L217.889 116.166L217.66 116.144L217.513 116.13L216.95 115.841L216.843 115.755L216.612 115.546L216.406 115.346L216.154 115.065L216.126 115.363L216.041 115.787L216.029 115.918L215.867 116.296L215.752 116.531L215.313 117.004L215.129 117.145L214.866 117.273L214.706 117.334L214.354 117.47L213.957 117.619L213.547 117.733L212.749 117.897L212.545 117.911L212.35 117.892L212.171 117.875L211.904 117.806L211.528 117.671L211.172 117.446L211.136 117.541L211.01 117.764L210.773 118.13L210.677 118.28L210.309 118.579L209.857 118.902L209.252 119.156L208.727 119.331L208.16 119.479L207.841 119.503L207.597 119.48L207.394 119.422L207.216 119.285L207.119 119.095L207.072 118.844L207.137 118.621L207.234 118.466L207.409 118.297L207.635 118.154L207.821 118.046L208.024 117.813L208.266 117.339L208.447 116.765L208.565 115.923L208.617 115.205L208.614 114.548L208.263 113.929L207.728 112.937L207.008 111.369L206.4 109.648L206.245 109.042L206.12 108.406L206.086 107.84L206.167 107.388L206.253 107.237L206.375 107.106L206.551 106.981L206.749 106.852L207.009 106.713L207.266 106.6L207.544 106.496L207.815 106.407L208.259 106.279L208.522 106.217L208.762 106.174L208.997 106.18L209.221 106.24L209.396 106.355L209.537 106.478C209.537 106.478 209.616 106.567 209.705 106.729C209.793 106.891 209.911 107.148 209.911 107.148L210.143 107.701L210.306 108.116L210.467 108.602L210.617 109.092L210.74 109.531L210.86 109.985L210.995 110.469L211.074 110.848L211.101 110.96L211.555 111.879L211.995 112.665L212.391 113.332L212.743 113.88L213.054 114.353L213.181 114.508L213.192 114.394L213.183 113.917L213.101 112.651L212.865 111.052L212.587 109.674L212.319 108.582L212.036 107.531L211.721 106.757L211.469 106.022L211.421 105.826L211.42 105.722L211.443 105.598L211.494 105.466L211.576 105.354L211.669 105.242L211.874 105.098L212.168 104.94L212.566 104.786L213.007 104.637L213.586 104.468L213.777 104.42L213.948 104.409L214.117 104.409L214.28 104.424L214.454 104.496L214.599 104.581L214.71 104.673L214.807 104.808L215.126 105.359L215.521 106.097L215.926 106.896L216.298 107.643L216.608 108.241L216.898 108.816L217.211 109.437L217.458 109.887L217.345 109.182L216.854 106.525L216.583 104.666L216.565 104.396L216.558 104.122L216.604 103.924L216.69 103.708L216.757 103.588L216.902 103.443L217.193 103.258L217.73 103.025L218.082 102.883L218.859 102.656L219.22 102.598L219.597 102.612L219.903 102.674L219.986 102.715L220.395 103.022L220.706 103.374L221.04 103.773L221.462 104.393L221.517 104.453L221.497 104.254L221.498 103.794L221.509 103.391L221.552 102.941L221.588 102.681L221.706 102.239L221.759 102.145L221.971 101.87L222.137 101.683L222.302 101.562L222.464 101.463L222.74 101.325L223.054 101.185L223.489 101.041L223.896 100.905L224.415 100.795L224.836 100.747L225.056 100.73L225.298 100.775L225.472 100.841L225.709 100.945L225.957 101.033Z" fill="#016EAA"/>
</g>
<path d="M195.5 38L197.521 44.2188H204.06L198.769 48.0623L200.79 54.2812L195.5 50.4377L190.21 54.2812L192.231 48.0623L186.94 44.2188H193.479L195.5 38Z" fill="#F65428"/>
<path d="M203.188 84C203.188 84 202.075 77.7345 205.268 76.4857C207.951 75.4365 210.277 80.0761 212.481 78.3941C214.714 76.6903 209.14 73.9911 210.955 71.9532C212.866 69.8085 219 71.9532 219 71.9532" stroke="#1ABCFE" stroke-width="2.01707"/>
<path fill-rule="evenodd" clip-rule="evenodd" d="M172.255 17.113C169.258 18.4092 166.399 19.6386 163.456 21.0508C162.053 21.7244 160.536 22.6028 159.166 23.3457C160.778 24.3843 161.787 24.7046 163.385 25.7578C163.386 25.7582 160.832 28.956 159.085 31.301C162.901 30.0655 167.184 26.8018 169.444 24.8714C168.291 24.1765 167.103 23.4848 165.895 22.8892C167.989 20.9395 170.138 19.0357 172.255 17.113Z" stroke="#F98C6F" stroke-miterlimit="1.5" stroke-linecap="round" stroke-linejoin="round"/>
<path d="M169.391 10.4746C169.614 10.8049 169.827 11.1444 170.057 11.4701" stroke="#F65428" stroke-miterlimit="1.5" stroke-linecap="round" stroke-linejoin="round"/>
<path d="M174.773 9.17383C174.661 9.60251 174.581 10.0388 174.475 10.4687" stroke="#F65428" stroke-miterlimit="1.5" stroke-linecap="round" stroke-linejoin="round"/>
<path d="M178.123 13.0117C178.678 12.7739 179.207 12.4804 179.761 12.2413" stroke="#F65428" stroke-miterlimit="1.5" stroke-linecap="round" stroke-linejoin="round"/>
<path d="M179.849 18.3922C180.434 18.5118 181.029 18.6425 181.623 18.7093" stroke="#F65428" stroke-miterlimit="1.5" stroke-linecap="round" stroke-linejoin="round"/>
<path fill-rule="evenodd" clip-rule="evenodd" d="M119.342 31.0697C119.111 27.9843 117.8 24.7342 117.172 21.6859C116.66 19.2003 116.351 15.7561 117.227 13.3013C118.071 10.9351 120.599 11.0987 121.329 13.4733C122.284 16.5807 120.763 20.268 120.076 23.3031C119.534 25.7007 119.418 28.64 119.342 31.0697Z" stroke="#017BC0" stroke-miterlimit="1.5" stroke-linecap="round" stroke-linejoin="round"/>
<defs>
<filter id="filter0_d_2456_66231" x="62.7969" y="45.8223" width="140" height="140" filterUnits="userSpaceOnUse" color-interpolation-filters="sRGB">
<feFlood flood-opacity="0" result="BackgroundImageFix"/>
<feColorMatrix in="SourceAlpha" type="matrix" values="0 0 0 0 0 0 0 0 0 0 0 0 0 0 0 0 0 0 127 0" result="hardAlpha"/>
<feOffset dy="20"/>
<feGaussianBlur stdDeviation="20"/>
<feComposite in2="hardAlpha" operator="out"/>
<feColorMatrix type="matrix" values="0 0 0 0 0 0 0 0 0 0 0 0 0 0 0 0 0 0 0.3 0"/>
<feBlend mode="normal" in2="BackgroundImageFix" result="effect1_dropShadow_2456_66231"/>
<feBlend mode="normal" in="SourceGraphic" in2="effect1_dropShadow_2456_66231" result="shape"/>
</filter>
</defs>
</svg>
