<svg width="100" height="100" viewBox="0 0 100 100" fill="none" xmlns="http://www.w3.org/2000/svg">
<rect width="100" height="100" rx="50" fill="#D54033"/>
<rect x="20" y="20" width="60" height="60" rx="30" fill="white"/>
<path d="M54.7075 46.7075L51.4138 50L54.7075 53.2925C54.8004 53.3854 54.8741 53.4957 54.9244 53.6171C54.9747 53.7385 55.0006 53.8686 55.0006 54C55.0006 54.1314 54.9747 54.2615 54.9244 54.3829C54.8741 54.5043 54.8004 54.6146 54.7075 54.7075C54.6146 54.8004 54.5043 54.8741 54.3829 54.9244C54.2615 54.9747 54.1314 55.0006 54 55.0006C53.8686 55.0006 53.7385 54.9747 53.6171 54.9244C53.4957 54.8741 53.3854 54.8004 53.2925 54.7075L50 51.4137L46.7075 54.7075C46.6146 54.8004 46.5043 54.8741 46.3829 54.9244C46.2615 54.9747 46.1314 55.0006 46 55.0006C45.8686 55.0006 45.7385 54.9747 45.6171 54.9244C45.4957 54.8741 45.3854 54.8004 45.2925 54.7075C45.1996 54.6146 45.1259 54.5043 45.0756 54.3829C45.0253 54.2615 44.9994 54.1314 44.9994 54C44.9994 53.8686 45.0253 53.7385 45.0756 53.6171C45.1259 53.4957 45.1996 53.3854 45.2925 53.2925L48.5863 50L45.2925 46.7075C45.1049 46.5199 44.9994 46.2654 44.9994 46C44.9994 45.7346 45.1049 45.4801 45.2925 45.2925C45.4801 45.1049 45.7346 44.9994 46 44.9994C46.2654 44.9994 46.5199 45.1049 46.7075 45.2925L50 48.5863L53.2925 45.2925C53.3854 45.1996 53.4957 45.1259 53.6171 45.0756C53.7385 45.0253 53.8686 44.9994 54 44.9994C54.1314 44.9994 54.2615 45.0253 54.3829 45.0756C54.5043 45.1259 54.6146 45.1996 54.7075 45.2925C54.8004 45.3854 54.8741 45.4957 54.9244 45.6171C54.9747 45.7385 55.0006 45.8686 55.0006 46C55.0006 46.1314 54.9747 46.2615 54.9244 46.3829C54.8741 46.5043 54.8004 46.6146 54.7075 46.7075ZM63 50C63 52.5712 62.2376 55.0846 60.8091 57.2224C59.3807 59.3603 57.3503 61.0265 54.9749 62.0104C52.5995 62.9944 49.9856 63.2518 47.4638 62.7502C44.9421 62.2486 42.6257 61.0105 40.8076 59.1924C38.9895 57.3743 37.7514 55.0579 37.2498 52.5362C36.7482 50.0144 37.0056 47.4006 37.9896 45.0251C38.9735 42.6497 40.6398 40.6194 42.7776 39.1909C44.9154 37.7624 47.4288 37 50 37C53.4467 37.0036 56.7512 38.3744 59.1884 40.8116C61.6256 43.2488 62.9964 46.5533 63 50ZM61 50C61 47.8244 60.3549 45.6977 59.1462 43.8887C57.9375 42.0798 56.2195 40.6699 54.2095 39.8373C52.1995 39.0048 49.9878 38.7869 47.854 39.2114C45.7202 39.6358 43.7602 40.6834 42.2218 42.2218C40.6835 43.7602 39.6358 45.7202 39.2114 47.854C38.7869 49.9878 39.0048 52.1995 39.8373 54.2095C40.6699 56.2195 42.0798 57.9375 43.8887 59.1462C45.6977 60.3549 47.8244 61 50 61C52.9164 60.9967 55.7123 59.8367 57.7745 57.7745C59.8367 55.7123 60.9967 52.9164 61 50Z" fill="#14201F"/>
</svg>
