<svg width="20" height="20" viewBox="0 0 20 20" fill="none" xmlns="http://www.w3.org/2000/svg">
<path d="M17.5031 10C17.5031 14.1439 14.1439 17.5031 10 17.5031" stroke="#14201F" stroke-width="1.25" stroke-linecap="round" stroke-linejoin="round"/>
<path d="M2.49658 9.99995C2.49658 5.85609 5.85585 2.49683 9.99971 2.49683" stroke="#14201F" stroke-width="1.25" stroke-linecap="round" stroke-linejoin="round"/>
<path d="M2.49658 9.99993C2.4967 10.8788 2.65302 11.7507 2.95824 12.5748C3.09783 12.9576 3.49139 13.1856 3.89288 13.1162L4.71505 12.9713C5.37955 12.8541 5.83127 12.2309 5.73585 11.5629L5.48839 9.83074C5.44049 9.49541 5.25859 9.19387 4.98433 8.99508C4.71006 8.79629 4.36688 8.71726 4.0333 8.77608L2.56553 9.03488" stroke="#14201F" stroke-width="1.25" stroke-linecap="round" stroke-linejoin="round"/>
<path d="M17.5031 9.99995C17.5031 5.85609 14.1439 2.49683 10 2.49683" stroke="#14201F" stroke-width="1.25" stroke-linecap="round" stroke-linejoin="round"/>
<path d="M17.503 9.99993C17.5028 10.8788 17.3465 11.7507 17.0413 12.5748C16.9017 12.9576 16.5081 13.1856 16.1067 13.1162L15.2845 12.9713C14.62 12.8541 14.1683 12.2309 14.2637 11.5629L14.5111 9.83074C14.5591 9.49541 14.7409 9.19387 15.0152 8.99508C15.2895 8.79629 15.6327 8.71726 15.9662 8.77608L17.434 9.03488" stroke="#14201F" stroke-width="1.25" stroke-linecap="round" stroke-linejoin="round"/>
<path d="M11.244 10.4094C11.2415 10.4094 11.2392 10.4109 11.2382 10.4132C11.2373 10.4156 11.2378 10.4182 11.2396 10.42C11.2414 10.4218 11.244 10.4223 11.2464 10.4214C11.2487 10.4204 11.2502 10.4181 11.2502 10.4156C11.2503 10.4139 11.2497 10.4123 11.2485 10.4111C11.2473 10.4099 11.2457 10.4093 11.244 10.4094" stroke="#14201F" stroke-width="1.25" stroke-linecap="round" stroke-linejoin="round"/>
<path d="M8.75571 10.4118C8.75318 10.4118 8.75091 10.4134 8.74995 10.4157C8.74898 10.418 8.74952 10.4207 8.7513 10.4225C8.75308 10.4243 8.75576 10.4248 8.75809 10.4238C8.76042 10.4229 8.76193 10.4206 8.76193 10.4181C8.76204 10.4164 8.76142 10.4147 8.76023 10.4135C8.75904 10.4123 8.75738 10.4117 8.75571 10.4118" stroke="#14201F" stroke-width="1.25" stroke-linecap="round" stroke-linejoin="round"/>
</svg>
