<svg width="20" height="20" viewBox="0 0 20 20" fill="none" xmlns="http://www.w3.org/2000/svg">
<path d="M11.3332 16.6667H8.6665" stroke="#14201F" stroke-width="1.5" stroke-linecap="round" stroke-linejoin="round"/>
<path fill-rule="evenodd" clip-rule="evenodd" d="M14.1665 8.36008V8.33341V8.33341C14.1665 6.03258 12.3007 4.16675 9.99984 4.16675V4.16675C7.699 4.16675 5.83317 6.03258 5.83317 8.33341V8.33341V8.36008V10.4201C5.83317 10.6901 5.68067 10.9359 5.43984 11.0567L5.02067 11.2659C4.49734 11.5284 4.1665 12.0634 4.1665 12.6484V12.6484C4.1665 13.5017 4.85817 14.1934 5.7115 14.1934H14.2882C15.1415 14.1934 15.8332 13.5017 15.8332 12.6484V12.6484C15.8332 12.0634 15.5023 11.5284 14.979 11.2667L14.5598 11.0576C14.319 10.9359 14.1665 10.6901 14.1665 10.4201V8.36008Z" stroke="#14201F" stroke-width="1.5" stroke-linecap="round" stroke-linejoin="round"/>
</svg>
