<svg width="36" height="36" viewBox="0 0 36 36" fill="none" xmlns="http://www.w3.org/2000/svg">
<path d="M20.8242 13.3091H21.8266V15.815H20.8242V13.3091Z" fill="#0D0D12"/>
<path d="M22.8281 13.3091H23.8305V15.815H22.8281V13.3091Z" fill="#0D0D12"/>
<path d="M20.8242 16.8174H21.8266V17.8197H20.8242V16.8174Z" fill="#0D0D12"/>
<path d="M22.8281 16.8174H23.8305V17.8197H22.8281V16.8174Z" fill="#0D0D12"/>
<path d="M17.3203 18.8223H18.3227V19.8246H17.3203V18.8223Z" fill="#0D0D12"/>
<path d="M14.8125 28.8457H15.8149V29.8481H14.8125V28.8457Z" fill="#0D0D12"/>
<path d="M22.8281 18.8223H23.8305V19.8246H22.8281V18.8223Z" fill="#0D0D12"/>
<path d="M20.8242 20.8269H21.8266V21.8293H20.8242V20.8269Z" fill="#0D0D12"/>
<path d="M22.8281 20.8269H23.8305V21.8293H22.8281V20.8269Z" fill="#0D0D12"/>
<mask id="mask0_2000_42567" style="mask-type:luminance" maskUnits="userSpaceOnUse" x="1" y="1" width="4" height="4">
<path d="M1.78125 1.78149H4.31119V4.31144H1.78125V1.78149Z" fill="white"/>
</mask>
<g mask="url(#mask0_2000_42567)">
<path d="M2.7836 2.78385H4.28713V1.78149H2.28243C2.00571 1.78149 1.78125 2.00596 1.78125 2.28267V4.28738H2.7836V2.78385Z" fill="#0D0D12"/>
</g>
<mask id="mask1_2000_42567" style="mask-type:luminance" maskUnits="userSpaceOnUse" x="31" y="1" width="3" height="4">
<path d="M31.3242 1.78149H33.8542V4.31144H31.3242V1.78149Z" fill="white"/>
</mask>
<g mask="url(#mask1_2000_42567)">
<path d="M33.3563 1.78149H31.3516V2.78385H32.8551V4.28738H33.8574V2.28267C33.8574 2.00596 33.633 1.78149 33.3563 1.78149Z" fill="#0D0D12"/>
</g>
<mask id="mask2_2000_42567" style="mask-type:luminance" maskUnits="userSpaceOnUse" x="1" y="31" width="4" height="3">
<path d="M1.78125 31.3279H4.31119V33.8578H1.78125V31.3279Z" fill="white"/>
</mask>
<g mask="url(#mask2_2000_42567)">
<path d="M2.7836 31.3518H1.78125V33.3565C1.78125 33.6332 2.00571 33.8577 2.28243 33.8577H4.28713V32.8553H2.7836V31.3518Z" fill="#0D0D12"/>
</g>
<mask id="mask3_2000_42567" style="mask-type:luminance" maskUnits="userSpaceOnUse" x="31" y="31" width="3" height="3">
<path d="M31.3242 31.3279H33.8542V33.8578H31.3242V31.3279Z" fill="white"/>
</mask>
<g mask="url(#mask3_2000_42567)">
<path d="M32.8551 32.8553H31.3516V33.8577H33.3563C33.633 33.8577 33.8574 33.6332 33.8574 33.3565V31.3518H32.8551V32.8553Z" fill="#0D0D12"/>
</g>
<path d="M3.78516 4.28804V10.3022C3.78516 10.5789 4.00962 10.8033 4.28633 10.8033H10.3005C10.5772 10.8033 10.8016 10.5789 10.8016 10.3022V4.28804C10.8016 4.01133 10.5772 3.78687 10.3005 3.78687H4.28633C4.00962 3.78687 3.78516 4.01133 3.78516 4.28804ZM4.78751 4.78922H9.79927V9.80098H4.78751V4.78922Z" fill="#0D0D12"/>
<path d="M8.29495 5.7915H6.29024C6.01353 5.7915 5.78906 6.01597 5.78906 6.29268V8.29739C5.78906 8.5741 6.01353 8.79856 6.29024 8.79856H8.29495C8.57166 8.79856 8.79612 8.5741 8.79612 8.29739V6.29268C8.79612 6.01597 8.57166 5.7915 8.29495 5.7915ZM7.79377 7.79621H6.79142V6.79386H7.79377V7.79621Z" fill="#0D0D12"/>
<path d="M25.3371 10.8033H31.3512C31.6279 10.8033 31.8524 10.5789 31.8524 10.3022V4.28804C31.8524 4.01133 31.6279 3.78687 31.3512 3.78687H25.3371C25.0604 3.78687 24.8359 4.01133 24.8359 4.28804V10.3022C24.8359 10.5789 25.0604 10.8033 25.3371 10.8033ZM25.8383 4.78922H30.8501V9.80098H25.8383V4.78922Z" fill="#0D0D12"/>
<path d="M29.3457 5.7915H27.341C27.0643 5.7915 26.8398 6.01597 26.8398 6.29268V8.29739C26.8398 8.5741 27.0643 8.79856 27.341 8.79856H29.3457C29.6224 8.79856 29.8469 8.5741 29.8469 8.29739V6.29268C29.8469 6.01597 29.6224 5.7915 29.3457 5.7915ZM28.8446 7.79621H27.8422V6.79386H28.8446V7.79621Z" fill="#0D0D12"/>
<path d="M10.3005 24.8364H4.28633C4.00962 24.8364 3.78516 25.0609 3.78516 25.3376V31.3517C3.78516 31.6284 4.00962 31.8529 4.28633 31.8529H10.3005C10.5772 31.8529 10.8016 31.6284 10.8016 31.3517V25.3376C10.8016 25.0609 10.5772 24.8364 10.3005 24.8364ZM9.79927 30.8505H4.78751V25.8388H9.79927V30.8505Z" fill="#0D0D12"/>
<path d="M6.29024 29.8481H8.29495C8.57166 29.8481 8.79612 29.6237 8.79612 29.3469V27.3422C8.79612 27.0655 8.57166 26.8411 8.29495 26.8411H6.29024C6.01353 26.8411 5.78906 27.0655 5.78906 27.3422V29.3469C5.78906 29.6237 6.01353 29.8481 6.29024 29.8481ZM6.79142 27.8434H7.79377V28.8458H6.79142V27.8434Z" fill="#0D0D12"/>
<path d="M23.8309 11.3037H20.3227V5.28955H19.3203V11.8048C19.3203 12.0816 19.5448 12.306 19.8215 12.306H23.8309V11.3037Z" fill="#0D0D12"/>
<path d="M12.8047 7.79614H16.3129V8.7985H12.8047V7.79614Z" fill="#0D0D12"/>
<path d="M14.8125 5.7915H18.3207V6.79386H14.8125V5.7915Z" fill="#0D0D12"/>
<path d="M3.78516 11.3044H4.78751V15.815H3.78516V11.3044Z" fill="#0D0D12"/>
<path d="M10.8008 14.3115H5.78906V15.3139H10.2997V17.3186H11.302V14.8127C11.302 14.536 11.0775 14.3115 10.8008 14.3115Z" fill="#0D0D12"/>
<path d="M6.28906 11.8057H7.29142V12.808H6.28906V11.8057Z" fill="#0D0D12"/>
<path d="M12.3047 10.8032H13.307V14.8126H12.3047V10.8032Z" fill="#0D0D12"/>
<path d="M12.3047 15.8152H16.8153V16.8175H12.3047V15.8152Z" fill="#0D0D12"/>
<path d="M32.3535 16.3162H31.3512V21.3279H29.8477V22.3303H31.8524C32.1291 22.3303 32.3535 22.1058 32.3535 21.8291V16.3162Z" fill="#0D0D12"/>
<path d="M14.8125 10.8032H15.8149V11.8056H14.8125V10.8032Z" fill="#0D0D12"/>
<path d="M3.78516 18.3203H4.78751V22.3297H3.78516V18.3203Z" fill="#0D0D12"/>
<path d="M3.78516 22.8315H8.29574V23.8339H3.78516V22.8315Z" fill="#0D0D12"/>
<path d="M26.8406 15.815H27.843V13.8103C27.843 13.5335 27.6185 13.3091 27.3418 13.3091H24.8359V14.3114H26.8406V15.815Z" fill="#0D0D12"/>
<path d="M6.28906 18.3203H7.29142V19.3227H6.28906V18.3203Z" fill="#0D0D12"/>
<path d="M11.8047 17.8198H12.807V21.8292H11.8047V17.8198Z" fill="#0D0D12"/>
<path d="M11.8047 22.8315H16.3153V23.8339H11.8047V22.8315Z" fill="#0D0D12"/>
<path d="M5.78906 20.8269H10.2996V21.8293H5.78906V20.8269Z" fill="#0D0D12"/>
<path d="M12.3047 27.8428H13.307V29.8475H12.3047V27.8428Z" fill="#0D0D12"/>
<path d="M11.8047 25.8386H16.3153V26.841H11.8047V25.8386Z" fill="#0D0D12"/>
<path d="M19.8215 23.834V21.3281C19.8215 21.0514 19.5971 20.8269 19.3204 20.8269H14.3086V21.8293H18.8192V23.834H19.8215Z" fill="#0D0D12"/>
<path d="M14.8125 17.8198H15.8149V18.8222H14.8125V17.8198Z" fill="#0D0D12"/>
<path d="M9.29688 18.8223H10.2992V19.8246H9.29688V18.8223Z" fill="#0D0D12"/>
<path d="M31.3516 28.3445H32.3539V31.8527H31.3516V28.3445Z" fill="#0D0D12"/>
<path d="M28.8477 30.8506H30.3512V31.8529H28.8477V30.8506Z" fill="#0D0D12"/>
<path d="M28.8477 27.8428H29.85V29.8475H28.8477V27.8428Z" fill="#0D0D12"/>
<path d="M32.3501 23.8339C32.3501 23.5572 32.1256 23.3328 31.8489 23.3328H26.3359V24.3351H31.3477V27.3422H32.3501V23.8339Z" fill="#0D0D12"/>
<path d="M25.8383 29.8481V27.3422C25.8383 27.0655 25.6139 26.8411 25.3372 26.8411H19.8242V27.8434H24.836V29.8481H25.8383Z" fill="#0D0D12"/>
<path d="M26.8398 25.3374H30.3481V26.3398H26.8398V25.3374Z" fill="#0D0D12"/>
<path d="M11.8047 30.8506H15.3129V31.8529H11.8047V30.8506Z" fill="#0D0D12"/>
<path d="M16.8164 27.3423H17.8188V31.8529H16.8164V27.3423Z" fill="#0D0D12"/>
<path d="M17.8164 24.8364H19.8211V25.8388H17.8164V24.8364Z" fill="#0D0D12"/>
<path d="M25.3371 19.8246H27.843V18.8222H25.8383V15.8152H24.8359V19.3234C24.8359 19.6001 25.0604 19.8246 25.3371 19.8246Z" fill="#0D0D12"/>
<path d="M26.8398 16.8174H29.3457V17.8197H26.8398V16.8174Z" fill="#0D0D12"/>
<path d="M28.8477 11.8057H30.3512V12.808H28.8477V11.8057Z" fill="#0D0D12"/>
<path d="M31.3516 11.8057H32.3539V14.3115H31.3516V11.8057Z" fill="#0D0D12"/>
<path d="M28.8477 14.3115H29.85V15.3139H28.8477V14.3115Z" fill="#0D0D12"/>
<path d="M21.3242 10.3028H23.3289C23.6056 10.3028 23.8301 10.0784 23.8301 9.80167V3.28638H22.8277V9.30049H21.3242V10.3028Z" fill="#0D0D12"/>
<path d="M13.807 4.28873H21.3247V3.28638H13.3059C13.0292 3.28638 12.8047 3.51084 12.8047 3.78755V6.29344H13.807V4.28873Z" fill="#0D0D12"/>
<path d="M14.3086 13.8104H17.8168C18.0935 13.8104 18.318 13.5859 18.318 13.3092V9.2998H17.3157V12.808H14.3086V13.8104Z" fill="#0D0D12"/>
<path d="M18.8203 13.3093H19.8227V15.314H18.8203V13.3093Z" fill="#0D0D12"/>
<path d="M19.8242 28.8457H23.3325V29.8481H19.8242V28.8457Z" fill="#0D0D12"/>
<path d="M19.8242 30.8506H24.3348V31.8529H19.8242V30.8506Z" fill="#0D0D12"/>
<path d="M26.8383 30.8505H25.8359V31.8529H27.3395C27.6162 31.8529 27.8406 31.6284 27.8406 31.3517V27.3423H26.8383V30.8505Z" fill="#0D0D12"/>
<path d="M9.80078 22.8315H10.8031V23.8339H9.80078V22.8315Z" fill="#0D0D12"/>
<path d="M21.3242 22.8315H23.3289V23.8339H21.3242V22.8315Z" fill="#0D0D12"/>
<path d="M24.8359 20.8269H25.8383V22.3304H24.8359V20.8269Z" fill="#0D0D12"/>
<path d="M24.332 23.3328H25.3344V24.3351H24.332V23.3328Z" fill="#0D0D12"/>
<path d="M21.3242 24.8364H22.8277V25.8388H21.3242V24.8364Z" fill="#0D0D12"/>
<path d="M26.8398 20.8269H27.8422V21.8293H26.8398V20.8269Z" fill="#0D0D12"/>
<path d="M28.8477 18.8223H30.3512V19.8246H28.8477V18.8223Z" fill="#0D0D12"/>
<path d="M19.3203 18.8223H21.8262V19.8246H19.3203V18.8223Z" fill="#0D0D12"/>
<path d="M18.8203 16.3162H19.8227V17.8197H18.8203V16.3162Z" fill="#0D0D12"/>
<path d="M20.8242 13.3091H21.8266V15.815H20.8242V13.3091Z" fill="#0D0D12"/>
<path d="M22.8281 13.3091H23.8305V15.815H22.8281V13.3091Z" fill="#0D0D12"/>
<path d="M20.8242 16.8174H21.8266V17.8197H20.8242V16.8174Z" fill="#0D0D12"/>
<path d="M22.8281 16.8174H23.8305V17.8197H22.8281V16.8174Z" fill="#0D0D12"/>
<path d="M17.3203 18.8223H18.3227V19.8246H17.3203V18.8223Z" fill="#0D0D12"/>
<path d="M14.8125 28.8457H15.8149V29.8481H14.8125V28.8457Z" fill="#0D0D12"/>
<path d="M22.8281 18.8223H23.8305V19.8246H22.8281V18.8223Z" fill="#0D0D12"/>
<path d="M20.8242 20.8269H21.8266V21.8293H20.8242V20.8269Z" fill="#0D0D12"/>
<path d="M22.8281 20.8269H23.8305V21.8293H22.8281V20.8269Z" fill="#0D0D12"/>
<mask id="mask4_2000_42567" style="mask-type:luminance" maskUnits="userSpaceOnUse" x="1" y="1" width="4" height="4">
<path d="M1.78125 1.78149H4.31119V4.31144H1.78125V1.78149Z" fill="white"/>
</mask>
<g mask="url(#mask4_2000_42567)">
<path d="M2.7836 2.78385H4.28713V1.78149H2.28243C2.00571 1.78149 1.78125 2.00596 1.78125 2.28267V4.28738H2.7836V2.78385Z" fill="#0D0D12"/>
</g>
<mask id="mask5_2000_42567" style="mask-type:luminance" maskUnits="userSpaceOnUse" x="31" y="1" width="3" height="4">
<path d="M31.3242 1.78149H33.8542V4.31144H31.3242V1.78149Z" fill="white"/>
</mask>
<g mask="url(#mask5_2000_42567)">
<path d="M33.3563 1.78149H31.3516V2.78385H32.8551V4.28738H33.8574V2.28267C33.8574 2.00596 33.633 1.78149 33.3563 1.78149Z" fill="#0D0D12"/>
</g>
<mask id="mask6_2000_42567" style="mask-type:luminance" maskUnits="userSpaceOnUse" x="1" y="31" width="4" height="3">
<path d="M1.78125 31.3279H4.31119V33.8578H1.78125V31.3279Z" fill="white"/>
</mask>
<g mask="url(#mask6_2000_42567)">
<path d="M2.7836 31.3518H1.78125V33.3565C1.78125 33.6332 2.00571 33.8577 2.28243 33.8577H4.28713V32.8553H2.7836V31.3518Z" fill="#0D0D12"/>
</g>
<mask id="mask7_2000_42567" style="mask-type:luminance" maskUnits="userSpaceOnUse" x="31" y="31" width="3" height="3">
<path d="M31.3242 31.3279H33.8542V33.8578H31.3242V31.3279Z" fill="white"/>
</mask>
<g mask="url(#mask7_2000_42567)">
<path d="M32.8551 32.8553H31.3516V33.8577H33.3563C33.633 33.8577 33.8574 33.6332 33.8574 33.3565V31.3518H32.8551V32.8553Z" fill="#0D0D12"/>
</g>
<path d="M3.78516 4.28804V10.3022C3.78516 10.5789 4.00962 10.8033 4.28633 10.8033H10.3005C10.5772 10.8033 10.8016 10.5789 10.8016 10.3022V4.28804C10.8016 4.01133 10.5772 3.78687 10.3005 3.78687H4.28633C4.00962 3.78687 3.78516 4.01133 3.78516 4.28804ZM4.78751 4.78922H9.79927V9.80098H4.78751V4.78922Z" fill="#0D0D12"/>
<path d="M8.29495 5.7915H6.29024C6.01353 5.7915 5.78906 6.01597 5.78906 6.29268V8.29739C5.78906 8.5741 6.01353 8.79856 6.29024 8.79856H8.29495C8.57166 8.79856 8.79612 8.5741 8.79612 8.29739V6.29268C8.79612 6.01597 8.57166 5.7915 8.29495 5.7915ZM7.79377 7.79621H6.79142V6.79386H7.79377V7.79621Z" fill="#0D0D12"/>
<path d="M25.3371 10.8033H31.3512C31.6279 10.8033 31.8524 10.5789 31.8524 10.3022V4.28804C31.8524 4.01133 31.6279 3.78687 31.3512 3.78687H25.3371C25.0604 3.78687 24.8359 4.01133 24.8359 4.28804V10.3022C24.8359 10.5789 25.0604 10.8033 25.3371 10.8033ZM25.8383 4.78922H30.8501V9.80098H25.8383V4.78922Z" fill="#0D0D12"/>
<path d="M29.3457 5.7915H27.341C27.0643 5.7915 26.8398 6.01597 26.8398 6.29268V8.29739C26.8398 8.5741 27.0643 8.79856 27.341 8.79856H29.3457C29.6224 8.79856 29.8469 8.5741 29.8469 8.29739V6.29268C29.8469 6.01597 29.6224 5.7915 29.3457 5.7915ZM28.8446 7.79621H27.8422V6.79386H28.8446V7.79621Z" fill="#0D0D12"/>
<path d="M10.3005 24.8364H4.28633C4.00962 24.8364 3.78516 25.0609 3.78516 25.3376V31.3517C3.78516 31.6284 4.00962 31.8529 4.28633 31.8529H10.3005C10.5772 31.8529 10.8016 31.6284 10.8016 31.3517V25.3376C10.8016 25.0609 10.5772 24.8364 10.3005 24.8364ZM9.79927 30.8505H4.78751V25.8388H9.79927V30.8505Z" fill="#0D0D12"/>
<path d="M6.29024 29.8481H8.29495C8.57166 29.8481 8.79612 29.6237 8.79612 29.3469V27.3422C8.79612 27.0655 8.57166 26.8411 8.29495 26.8411H6.29024C6.01353 26.8411 5.78906 27.0655 5.78906 27.3422V29.3469C5.78906 29.6237 6.01353 29.8481 6.29024 29.8481ZM6.79142 27.8434H7.79377V28.8458H6.79142V27.8434Z" fill="#0D0D12"/>
<path d="M23.8309 11.3037H20.3227V5.28955H19.3203V11.8048C19.3203 12.0816 19.5448 12.306 19.8215 12.306H23.8309V11.3037Z" fill="#0D0D12"/>
<path d="M12.8047 7.79614H16.3129V8.7985H12.8047V7.79614Z" fill="#0D0D12"/>
<path d="M14.8125 5.7915H18.3207V6.79386H14.8125V5.7915Z" fill="#0D0D12"/>
<path d="M3.78516 11.3044H4.78751V15.815H3.78516V11.3044Z" fill="#0D0D12"/>
<path d="M10.8008 14.3115H5.78906V15.3139H10.2997V17.3186H11.302V14.8127C11.302 14.536 11.0775 14.3115 10.8008 14.3115Z" fill="#0D0D12"/>
<path d="M6.28906 11.8057H7.29142V12.808H6.28906V11.8057Z" fill="#0D0D12"/>
<path d="M12.3047 10.8032H13.307V14.8126H12.3047V10.8032Z" fill="#0D0D12"/>
<path d="M12.3047 15.8152H16.8153V16.8175H12.3047V15.8152Z" fill="#0D0D12"/>
<path d="M32.3535 16.3162H31.3512V21.3279H29.8477V22.3303H31.8524C32.1291 22.3303 32.3535 22.1058 32.3535 21.8291V16.3162Z" fill="#0D0D12"/>
<path d="M14.8125 10.8032H15.8149V11.8056H14.8125V10.8032Z" fill="#0D0D12"/>
<path d="M3.78516 18.3203H4.78751V22.3297H3.78516V18.3203Z" fill="#0D0D12"/>
<path d="M3.78516 22.8315H8.29574V23.8339H3.78516V22.8315Z" fill="#0D0D12"/>
<path d="M26.8406 15.815H27.843V13.8103C27.843 13.5335 27.6185 13.3091 27.3418 13.3091H24.8359V14.3114H26.8406V15.815Z" fill="#0D0D12"/>
<path d="M6.28906 18.3203H7.29142V19.3227H6.28906V18.3203Z" fill="#0D0D12"/>
<path d="M11.8047 17.8198H12.807V21.8292H11.8047V17.8198Z" fill="#0D0D12"/>
<path d="M11.8047 22.8315H16.3153V23.8339H11.8047V22.8315Z" fill="#0D0D12"/>
<path d="M5.78906 20.8269H10.2996V21.8293H5.78906V20.8269Z" fill="#0D0D12"/>
<path d="M12.3047 27.8428H13.307V29.8475H12.3047V27.8428Z" fill="#0D0D12"/>
<path d="M11.8047 25.8386H16.3153V26.841H11.8047V25.8386Z" fill="#0D0D12"/>
<path d="M19.8215 23.834V21.3281C19.8215 21.0514 19.5971 20.8269 19.3204 20.8269H14.3086V21.8293H18.8192V23.834H19.8215Z" fill="#0D0D12"/>
<path d="M14.8125 17.8198H15.8149V18.8222H14.8125V17.8198Z" fill="#0D0D12"/>
<path d="M9.29688 18.8223H10.2992V19.8246H9.29688V18.8223Z" fill="#0D0D12"/>
<path d="M31.3516 28.3445H32.3539V31.8527H31.3516V28.3445Z" fill="#0D0D12"/>
<path d="M28.8477 30.8506H30.3512V31.8529H28.8477V30.8506Z" fill="#0D0D12"/>
<path d="M28.8477 27.8428H29.85V29.8475H28.8477V27.8428Z" fill="#0D0D12"/>
<path d="M32.3501 23.8339C32.3501 23.5572 32.1256 23.3328 31.8489 23.3328H26.3359V24.3351H31.3477V27.3422H32.3501V23.8339Z" fill="#0D0D12"/>
<path d="M25.8383 29.8481V27.3422C25.8383 27.0655 25.6139 26.8411 25.3372 26.8411H19.8242V27.8434H24.836V29.8481H25.8383Z" fill="#0D0D12"/>
<path d="M26.8398 25.3374H30.3481V26.3398H26.8398V25.3374Z" fill="#0D0D12"/>
<path d="M11.8047 30.8506H15.3129V31.8529H11.8047V30.8506Z" fill="#0D0D12"/>
<path d="M16.8164 27.3423H17.8188V31.8529H16.8164V27.3423Z" fill="#0D0D12"/>
<path d="M17.8164 24.8364H19.8211V25.8388H17.8164V24.8364Z" fill="#0D0D12"/>
<path d="M25.3371 19.8246H27.843V18.8222H25.8383V15.8152H24.8359V19.3234C24.8359 19.6001 25.0604 19.8246 25.3371 19.8246Z" fill="#0D0D12"/>
<path d="M26.8398 16.8174H29.3457V17.8197H26.8398V16.8174Z" fill="#0D0D12"/>
<path d="M28.8477 11.8057H30.3512V12.808H28.8477V11.8057Z" fill="#0D0D12"/>
<path d="M31.3516 11.8057H32.3539V14.3115H31.3516V11.8057Z" fill="#0D0D12"/>
<path d="M28.8477 14.3115H29.85V15.3139H28.8477V14.3115Z" fill="#0D0D12"/>
<path d="M21.3242 10.3028H23.3289C23.6056 10.3028 23.8301 10.0784 23.8301 9.80167V3.28638H22.8277V9.30049H21.3242V10.3028Z" fill="#0D0D12"/>
<path d="M13.807 4.28873H21.3247V3.28638H13.3059C13.0292 3.28638 12.8047 3.51084 12.8047 3.78755V6.29344H13.807V4.28873Z" fill="#0D0D12"/>
<path d="M14.3086 13.8104H17.8168C18.0935 13.8104 18.318 13.5859 18.318 13.3092V9.2998H17.3157V12.808H14.3086V13.8104Z" fill="#0D0D12"/>
<path d="M18.8203 13.3093H19.8227V15.314H18.8203V13.3093Z" fill="#0D0D12"/>
<path d="M19.8242 28.8457H23.3325V29.8481H19.8242V28.8457Z" fill="#0D0D12"/>
<path d="M19.8242 30.8506H24.3348V31.8529H19.8242V30.8506Z" fill="#0D0D12"/>
<path d="M26.8383 30.8505H25.8359V31.8529H27.3395C27.6162 31.8529 27.8406 31.6284 27.8406 31.3517V27.3423H26.8383V30.8505Z" fill="#0D0D12"/>
<path d="M9.80078 22.8315H10.8031V23.8339H9.80078V22.8315Z" fill="#0D0D12"/>
<path d="M21.3242 22.8315H23.3289V23.8339H21.3242V22.8315Z" fill="#0D0D12"/>
<path d="M24.8359 20.8269H25.8383V22.3304H24.8359V20.8269Z" fill="#0D0D12"/>
<path d="M24.332 23.3328H25.3344V24.3351H24.332V23.3328Z" fill="#0D0D12"/>
<path d="M21.3242 24.8364H22.8277V25.8388H21.3242V24.8364Z" fill="#0D0D12"/>
<path d="M26.8398 20.8269H27.8422V21.8293H26.8398V20.8269Z" fill="#0D0D12"/>
<path d="M28.8477 18.8223H30.3512V19.8246H28.8477V18.8223Z" fill="#0D0D12"/>
<path d="M19.3203 18.8223H21.8262V19.8246H19.3203V18.8223Z" fill="#0D0D12"/>
<path d="M18.8203 16.3162H19.8227V17.8197H18.8203V16.3162Z" fill="#0D0D12"/>
</svg>
