<svg width="39" height="39" viewBox="0 0 39 39" fill="none" xmlns="http://www.w3.org/2000/svg">
<path d="M22.2461 14.2175H23.3168V16.8944H22.2461V14.2175Z" fill="white"/>
<path d="M24.3867 14.2175H25.4575V16.8944H24.3867V14.2175Z" fill="white"/>
<path d="M22.2461 17.9646H23.3168V19.0353H22.2461V17.9646Z" fill="white"/>
<path d="M24.3867 17.9646H25.4575V19.0353H24.3867V17.9646Z" fill="white"/>
<path d="M18.5 20.1062H19.5707V21.1769H18.5V20.1062Z" fill="white"/>
<path d="M15.8203 30.814H16.891V31.8847H15.8203V30.814Z" fill="white"/>
<path d="M24.3867 20.1062H25.4575V21.1769H24.3867V20.1062Z" fill="white"/>
<path d="M22.2461 22.2473H23.3168V23.3181H22.2461V22.2473Z" fill="white"/>
<path d="M24.3867 22.2473H25.4575V23.3181H24.3867V22.2473Z" fill="white"/>
<mask id="mask0_2000_42784" style="mask-type:luminance" maskUnits="userSpaceOnUse" x="1" y="1" width="4" height="4">
<path d="M1.90234 1.90259H4.60489V4.60513H1.90234V1.90259Z" fill="white"/>
</mask>
<g mask="url(#mask0_2000_42784)">
<path d="M2.97308 2.97332H4.57919V1.90259H2.43771C2.14212 1.90259 1.90234 2.14237 1.90234 2.43796V4.57943H2.97308V2.97332Z" fill="white"/>
</g>
<mask id="mask1_2000_42784" style="mask-type:luminance" maskUnits="userSpaceOnUse" x="33" y="1" width="4" height="4">
<path d="M33.4609 1.90259H36.1635V4.60513H33.4609V1.90259Z" fill="white"/>
</mask>
<g mask="url(#mask1_2000_42784)">
<path d="M35.6298 1.90259H33.4883V2.97332H35.0944V4.57943H36.1651V2.43796C36.1651 2.14237 35.9253 1.90259 35.6298 1.90259Z" fill="white"/>
</g>
<mask id="mask2_2000_42784" style="mask-type:luminance" maskUnits="userSpaceOnUse" x="1" y="33" width="4" height="4">
<path d="M1.90234 33.4648H4.60489V36.1674H1.90234V33.4648Z" fill="white"/>
</mask>
<g mask="url(#mask2_2000_42784)">
<path d="M2.97308 33.4902H1.90234V35.6317C1.90234 35.9273 2.14212 36.1671 2.43771 36.1671H4.57919V35.0963H2.97308V33.4902Z" fill="white"/>
</g>
<mask id="mask3_2000_42784" style="mask-type:luminance" maskUnits="userSpaceOnUse" x="33" y="33" width="4" height="4">
<path d="M33.4609 33.4648H36.1635V36.1674H33.4609V33.4648Z" fill="white"/>
</mask>
<g mask="url(#mask3_2000_42784)">
<path d="M35.0944 35.0963H33.4883V36.1671H35.6298C35.9253 36.1671 36.1651 35.9273 36.1651 35.6317V33.4902H35.0944V35.0963Z" fill="white"/>
</g>
<path d="M4.04297 4.58029V11.0047C4.04297 11.3003 4.28275 11.5401 4.57834 11.5401H11.0028C11.2983 11.5401 11.5381 11.3003 11.5381 11.0047V4.58029C11.5381 4.2847 11.2983 4.04492 11.0028 4.04492H4.57834C4.28275 4.04492 4.04297 4.2847 4.04297 4.58029ZM5.11371 5.11566H10.4674V10.4693H5.11371V5.11566Z" fill="white"/>
<path d="M8.86044 6.18677H6.71896C6.42337 6.18677 6.18359 6.42655 6.18359 6.72214V8.86361C6.18359 9.1592 6.42337 9.39898 6.71896 9.39898H8.86044C9.15603 9.39898 9.3958 9.1592 9.3958 8.86361V6.72214C9.3958 6.42655 9.15603 6.18677 8.86044 6.18677ZM8.32507 8.32824H7.25433V7.2575H8.32507V8.32824Z" fill="white"/>
<path d="M27.0666 11.5401H33.491C33.7866 11.5401 34.0264 11.3003 34.0264 11.0047V4.58029C34.0264 4.2847 33.7866 4.04492 33.491 4.04492H27.0666C26.771 4.04492 26.5312 4.2847 26.5312 4.58029V11.0047C26.5312 11.3003 26.771 11.5401 27.0666 11.5401ZM27.602 5.11566H32.9557V10.4693H27.602V5.11566Z" fill="white"/>
<path d="M31.3487 6.18677H29.2072C28.9117 6.18677 28.6719 6.42655 28.6719 6.72214V8.86361C28.6719 9.1592 28.9117 9.39898 29.2072 9.39898H31.3487C31.6443 9.39898 31.8841 9.1592 31.8841 8.86361V6.72214C31.8841 6.42655 31.6443 6.18677 31.3487 6.18677ZM30.8133 8.32824H29.7426V7.2575H30.8133V8.32824Z" fill="white"/>
<path d="M11.0028 26.531H4.57834C4.28275 26.531 4.04297 26.7708 4.04297 27.0664V33.4908C4.04297 33.7864 4.28275 34.0262 4.57834 34.0262H11.0028C11.2983 34.0262 11.5381 33.7864 11.5381 33.4908V27.0664C11.5381 26.7708 11.2983 26.531 11.0028 26.531ZM10.4674 32.9554H5.11371V27.6017H10.4674V32.9554Z" fill="white"/>
<path d="M6.71896 31.8843H8.86044C9.15603 31.8843 9.3958 31.6446 9.3958 31.349V29.2075C9.3958 28.9119 9.15603 28.6721 8.86044 28.6721H6.71896C6.42337 28.6721 6.18359 28.9119 6.18359 29.2075V31.349C6.18359 31.6446 6.42337 31.8843 6.71896 31.8843ZM7.25433 29.7429H8.32507V30.8136H7.25433V29.7429Z" fill="white"/>
<path d="M25.4589 12.0753H21.7114V5.65088H20.6406V12.6107C20.6406 12.9063 20.8804 13.146 21.176 13.146H25.4589V12.0753Z" fill="white"/>
<path d="M13.6797 8.32861H17.4273V9.39935H13.6797V8.32861Z" fill="white"/>
<path d="M15.8203 6.18677H19.5679V7.2575H15.8203V6.18677Z" fill="white"/>
<path d="M4.04297 12.0764H5.11371V16.8947H4.04297V12.0764Z" fill="white"/>
<path d="M11.5373 15.2876H6.18359V16.3583H11.0019V18.4998H12.0726V15.823C12.0726 15.5274 11.8329 15.2876 11.5373 15.2876Z" fill="white"/>
<path d="M6.71875 12.6108H7.78949V13.6816H6.71875V12.6108Z" fill="white"/>
<path d="M13.1445 11.5405H14.2153V15.8235H13.1445V11.5405Z" fill="white"/>
<path d="M13.1445 16.8943H17.9628V17.965H13.1445V16.8943Z" fill="white"/>
<path d="M34.5597 17.4294H33.4889V22.7831H31.8828V23.8539H34.0243C34.3199 23.8539 34.5597 23.6141 34.5597 23.3185V17.4294Z" fill="white"/>
<path d="M15.8203 11.5405H16.891V12.6113H15.8203V11.5405Z" fill="white"/>
<path d="M4.04297 19.5706H5.11371V23.8535H4.04297V19.5706Z" fill="white"/>
<path d="M4.04297 24.3892H8.86128V25.4599H4.04297V24.3892Z" fill="white"/>
<path d="M28.6727 16.8944H29.7435V14.7529C29.7435 14.4573 29.5037 14.2175 29.2081 14.2175H26.5312V15.2883H28.6727V16.8944Z" fill="white"/>
<path d="M6.71875 19.5706H7.78949V20.6413H6.71875V19.5706Z" fill="white"/>
<path d="M12.6094 19.0354H13.6801V23.3183H12.6094V19.0354Z" fill="white"/>
<path d="M12.6094 24.3892H17.4277V25.4599H12.6094V24.3892Z" fill="white"/>
<path d="M6.18359 22.2473H11.0019V23.3181H6.18359V22.2473Z" fill="white"/>
<path d="M13.1445 29.7429H14.2153V31.8844H13.1445V29.7429Z" fill="white"/>
<path d="M12.6094 27.6018H17.4277V28.6725H12.6094V27.6018Z" fill="white"/>
<path d="M21.1742 25.4595V22.7827C21.1742 22.4871 20.9344 22.2473 20.6388 22.2473H15.2852V23.3181H20.1035V25.4595H21.1742Z" fill="white"/>
<path d="M15.8203 19.0354H16.891V20.1061H15.8203V19.0354Z" fill="white"/>
<path d="M9.93359 20.1062H11.0043V21.1769H9.93359V20.1062Z" fill="white"/>
<path d="M33.4883 30.2781H34.559V34.0257H33.4883V30.2781Z" fill="white"/>
<path d="M30.8125 32.9548H32.4186V34.0256H30.8125V32.9548Z" fill="white"/>
<path d="M30.8125 29.7429H31.8832V31.8844H30.8125V29.7429Z" fill="white"/>
<path d="M34.5611 25.4604C34.5611 25.1648 34.3214 24.925 34.0258 24.925H28.1367V25.9958H33.4904V29.208H34.5611V25.4604Z" fill="white"/>
<path d="M27.6002 31.8843V29.2075C27.6002 28.9119 27.3604 28.6721 27.0648 28.6721H21.1758V29.7429H26.5295V31.8843H27.6002Z" fill="white"/>
<path d="M28.6719 27.0662H32.4195V28.1369H28.6719V27.0662Z" fill="white"/>
<path d="M12.6094 32.9548H16.357V34.0256H12.6094V32.9548Z" fill="white"/>
<path d="M17.9648 29.207H19.0356V34.0253H17.9648V29.207Z" fill="white"/>
<path d="M19.0352 26.531H21.1766V27.6017H19.0352V26.531Z" fill="white"/>
<path d="M27.0666 21.1772H29.7435V20.1065H27.602V16.8943H26.5312V20.6419C26.5312 20.9375 26.771 21.1772 27.0666 21.1772Z" fill="white"/>
<path d="M28.6719 17.9646H31.3487V19.0353H28.6719V17.9646Z" fill="white"/>
<path d="M30.8125 12.6108H32.4186V13.6816H30.8125V12.6108Z" fill="white"/>
<path d="M33.4883 12.6108H34.559V15.2877H33.4883V12.6108Z" fill="white"/>
<path d="M30.8125 15.2876H31.8832V16.3583H30.8125V15.2876Z" fill="white"/>
<path d="M22.7812 11.0052H24.9227C25.2183 11.0052 25.4581 10.7654 25.4581 10.4698V3.51001H24.3874V9.93443H22.7812V11.0052Z" fill="white"/>
<path d="M14.7504 4.58075H22.781V3.51001H14.2151C13.9195 3.51001 13.6797 3.74979 13.6797 4.04538V6.72222H14.7504V4.58075Z" fill="white"/>
<path d="M15.2852 14.7529H19.0327C19.3283 14.7529 19.5681 14.5131 19.5681 14.2175V9.93457H18.4974V13.6821H15.2852V14.7529Z" fill="white"/>
<path d="M20.1055 14.2175H21.1762V16.359H20.1055V14.2175Z" fill="white"/>
<path d="M21.1758 30.814H24.9234V31.8847H21.1758V30.814Z" fill="white"/>
<path d="M21.1758 32.9548H25.9941V34.0256H21.1758V32.9548Z" fill="white"/>
<path d="M28.6684 32.9546H27.5977V34.0253H29.2038C29.4994 34.0253 29.7391 33.7856 29.7391 33.49V29.207H28.6684V32.9546Z" fill="white"/>
<path d="M10.4688 24.3892H11.5395V25.4599H10.4688V24.3892Z" fill="white"/>
<path d="M22.7812 24.3892H24.9227V25.4599H22.7812V24.3892Z" fill="white"/>
<path d="M26.5312 22.2473H27.602V23.8534H26.5312V22.2473Z" fill="white"/>
<path d="M25.9961 24.925H27.0668V25.9958H25.9961V24.925Z" fill="white"/>
<path d="M22.7812 26.531H24.3874V27.6017H22.7812V26.531Z" fill="white"/>
<path d="M28.6719 22.2473H29.7426V23.3181H28.6719V22.2473Z" fill="white"/>
<path d="M30.8125 20.1062H32.4186V21.1769H30.8125V20.1062Z" fill="white"/>
<path d="M20.6406 20.1062H23.3175V21.1769H20.6406V20.1062Z" fill="white"/>
<path d="M20.1055 17.4294H21.1762V19.0355H20.1055V17.4294Z" fill="white"/>
<path d="M22.2461 14.2175H23.3168V16.8944H22.2461V14.2175Z" fill="white"/>
<path d="M24.3867 14.2175H25.4575V16.8944H24.3867V14.2175Z" fill="white"/>
<path d="M22.2461 17.9646H23.3168V19.0353H22.2461V17.9646Z" fill="white"/>
<path d="M24.3867 17.9646H25.4575V19.0353H24.3867V17.9646Z" fill="white"/>
<path d="M18.5 20.1062H19.5707V21.1769H18.5V20.1062Z" fill="white"/>
<path d="M15.8203 30.814H16.891V31.8847H15.8203V30.814Z" fill="white"/>
<path d="M24.3867 20.1062H25.4575V21.1769H24.3867V20.1062Z" fill="white"/>
<path d="M22.2461 22.2473H23.3168V23.3181H22.2461V22.2473Z" fill="white"/>
<path d="M24.3867 22.2473H25.4575V23.3181H24.3867V22.2473Z" fill="white"/>
<mask id="mask4_2000_42784" style="mask-type:luminance" maskUnits="userSpaceOnUse" x="1" y="1" width="4" height="4">
<path d="M1.90234 1.90259H4.60489V4.60513H1.90234V1.90259Z" fill="white"/>
</mask>
<g mask="url(#mask4_2000_42784)">
<path d="M2.97308 2.97332H4.57919V1.90259H2.43771C2.14212 1.90259 1.90234 2.14237 1.90234 2.43796V4.57943H2.97308V2.97332Z" fill="white"/>
</g>
<mask id="mask5_2000_42784" style="mask-type:luminance" maskUnits="userSpaceOnUse" x="33" y="1" width="4" height="4">
<path d="M33.4609 1.90259H36.1635V4.60513H33.4609V1.90259Z" fill="white"/>
</mask>
<g mask="url(#mask5_2000_42784)">
<path d="M35.6298 1.90259H33.4883V2.97332H35.0944V4.57943H36.1651V2.43796C36.1651 2.14237 35.9253 1.90259 35.6298 1.90259Z" fill="white"/>
</g>
<mask id="mask6_2000_42784" style="mask-type:luminance" maskUnits="userSpaceOnUse" x="1" y="33" width="4" height="4">
<path d="M1.90234 33.4648H4.60489V36.1674H1.90234V33.4648Z" fill="white"/>
</mask>
<g mask="url(#mask6_2000_42784)">
<path d="M2.97308 33.4902H1.90234V35.6317C1.90234 35.9273 2.14212 36.1671 2.43771 36.1671H4.57919V35.0963H2.97308V33.4902Z" fill="white"/>
</g>
<mask id="mask7_2000_42784" style="mask-type:luminance" maskUnits="userSpaceOnUse" x="33" y="33" width="4" height="4">
<path d="M33.4609 33.4648H36.1635V36.1674H33.4609V33.4648Z" fill="white"/>
</mask>
<g mask="url(#mask7_2000_42784)">
<path d="M35.0944 35.0963H33.4883V36.1671H35.6298C35.9253 36.1671 36.1651 35.9273 36.1651 35.6317V33.4902H35.0944V35.0963Z" fill="white"/>
</g>
<path d="M4.04297 4.58029V11.0047C4.04297 11.3003 4.28275 11.5401 4.57834 11.5401H11.0028C11.2983 11.5401 11.5381 11.3003 11.5381 11.0047V4.58029C11.5381 4.2847 11.2983 4.04492 11.0028 4.04492H4.57834C4.28275 4.04492 4.04297 4.2847 4.04297 4.58029ZM5.11371 5.11566H10.4674V10.4693H5.11371V5.11566Z" fill="white"/>
<path d="M8.86044 6.18677H6.71896C6.42337 6.18677 6.18359 6.42655 6.18359 6.72214V8.86361C6.18359 9.1592 6.42337 9.39898 6.71896 9.39898H8.86044C9.15603 9.39898 9.3958 9.1592 9.3958 8.86361V6.72214C9.3958 6.42655 9.15603 6.18677 8.86044 6.18677ZM8.32507 8.32824H7.25433V7.2575H8.32507V8.32824Z" fill="white"/>
<path d="M27.0666 11.5401H33.491C33.7866 11.5401 34.0264 11.3003 34.0264 11.0047V4.58029C34.0264 4.2847 33.7866 4.04492 33.491 4.04492H27.0666C26.771 4.04492 26.5312 4.2847 26.5312 4.58029V11.0047C26.5312 11.3003 26.771 11.5401 27.0666 11.5401ZM27.602 5.11566H32.9557V10.4693H27.602V5.11566Z" fill="white"/>
<path d="M31.3487 6.18677H29.2072C28.9117 6.18677 28.6719 6.42655 28.6719 6.72214V8.86361C28.6719 9.1592 28.9117 9.39898 29.2072 9.39898H31.3487C31.6443 9.39898 31.8841 9.1592 31.8841 8.86361V6.72214C31.8841 6.42655 31.6443 6.18677 31.3487 6.18677ZM30.8133 8.32824H29.7426V7.2575H30.8133V8.32824Z" fill="white"/>
<path d="M11.0028 26.531H4.57834C4.28275 26.531 4.04297 26.7708 4.04297 27.0664V33.4908C4.04297 33.7864 4.28275 34.0262 4.57834 34.0262H11.0028C11.2983 34.0262 11.5381 33.7864 11.5381 33.4908V27.0664C11.5381 26.7708 11.2983 26.531 11.0028 26.531ZM10.4674 32.9554H5.11371V27.6017H10.4674V32.9554Z" fill="white"/>
<path d="M6.71896 31.8843H8.86044C9.15603 31.8843 9.3958 31.6446 9.3958 31.349V29.2075C9.3958 28.9119 9.15603 28.6721 8.86044 28.6721H6.71896C6.42337 28.6721 6.18359 28.9119 6.18359 29.2075V31.349C6.18359 31.6446 6.42337 31.8843 6.71896 31.8843ZM7.25433 29.7429H8.32507V30.8136H7.25433V29.7429Z" fill="white"/>
<path d="M25.4589 12.0753H21.7114V5.65088H20.6406V12.6107C20.6406 12.9063 20.8804 13.146 21.176 13.146H25.4589V12.0753Z" fill="white"/>
<path d="M13.6797 8.32861H17.4273V9.39935H13.6797V8.32861Z" fill="white"/>
<path d="M15.8203 6.18677H19.5679V7.2575H15.8203V6.18677Z" fill="white"/>
<path d="M4.04297 12.0764H5.11371V16.8947H4.04297V12.0764Z" fill="white"/>
<path d="M11.5373 15.2876H6.18359V16.3583H11.0019V18.4998H12.0726V15.823C12.0726 15.5274 11.8329 15.2876 11.5373 15.2876Z" fill="white"/>
<path d="M6.71875 12.6108H7.78949V13.6816H6.71875V12.6108Z" fill="white"/>
<path d="M13.1445 11.5405H14.2153V15.8235H13.1445V11.5405Z" fill="white"/>
<path d="M13.1445 16.8943H17.9628V17.965H13.1445V16.8943Z" fill="white"/>
<path d="M34.5597 17.4294H33.4889V22.7831H31.8828V23.8539H34.0243C34.3199 23.8539 34.5597 23.6141 34.5597 23.3185V17.4294Z" fill="white"/>
<path d="M15.8203 11.5405H16.891V12.6113H15.8203V11.5405Z" fill="white"/>
<path d="M4.04297 19.5706H5.11371V23.8535H4.04297V19.5706Z" fill="white"/>
<path d="M4.04297 24.3892H8.86128V25.4599H4.04297V24.3892Z" fill="white"/>
<path d="M28.6727 16.8944H29.7435V14.7529C29.7435 14.4573 29.5037 14.2175 29.2081 14.2175H26.5312V15.2883H28.6727V16.8944Z" fill="white"/>
<path d="M6.71875 19.5706H7.78949V20.6413H6.71875V19.5706Z" fill="white"/>
<path d="M12.6094 19.0354H13.6801V23.3183H12.6094V19.0354Z" fill="white"/>
<path d="M12.6094 24.3892H17.4277V25.4599H12.6094V24.3892Z" fill="white"/>
<path d="M6.18359 22.2473H11.0019V23.3181H6.18359V22.2473Z" fill="white"/>
<path d="M13.1445 29.7429H14.2153V31.8844H13.1445V29.7429Z" fill="white"/>
<path d="M12.6094 27.6018H17.4277V28.6725H12.6094V27.6018Z" fill="white"/>
<path d="M21.1742 25.4595V22.7827C21.1742 22.4871 20.9344 22.2473 20.6388 22.2473H15.2852V23.3181H20.1035V25.4595H21.1742Z" fill="white"/>
<path d="M15.8203 19.0354H16.891V20.1061H15.8203V19.0354Z" fill="white"/>
<path d="M9.93359 20.1062H11.0043V21.1769H9.93359V20.1062Z" fill="white"/>
<path d="M33.4883 30.2781H34.559V34.0257H33.4883V30.2781Z" fill="white"/>
<path d="M30.8125 32.9548H32.4186V34.0256H30.8125V32.9548Z" fill="white"/>
<path d="M30.8125 29.7429H31.8832V31.8844H30.8125V29.7429Z" fill="white"/>
<path d="M34.5611 25.4604C34.5611 25.1648 34.3214 24.925 34.0258 24.925H28.1367V25.9958H33.4904V29.208H34.5611V25.4604Z" fill="white"/>
<path d="M27.6002 31.8843V29.2075C27.6002 28.9119 27.3604 28.6721 27.0648 28.6721H21.1758V29.7429H26.5295V31.8843H27.6002Z" fill="white"/>
<path d="M28.6719 27.0662H32.4195V28.1369H28.6719V27.0662Z" fill="white"/>
<path d="M12.6094 32.9548H16.357V34.0256H12.6094V32.9548Z" fill="white"/>
<path d="M17.9648 29.207H19.0356V34.0253H17.9648V29.207Z" fill="white"/>
<path d="M19.0352 26.531H21.1766V27.6017H19.0352V26.531Z" fill="white"/>
<path d="M27.0666 21.1772H29.7435V20.1065H27.602V16.8943H26.5312V20.6419C26.5312 20.9375 26.771 21.1772 27.0666 21.1772Z" fill="white"/>
<path d="M28.6719 17.9646H31.3487V19.0353H28.6719V17.9646Z" fill="white"/>
<path d="M30.8125 12.6108H32.4186V13.6816H30.8125V12.6108Z" fill="white"/>
<path d="M33.4883 12.6108H34.559V15.2877H33.4883V12.6108Z" fill="white"/>
<path d="M30.8125 15.2876H31.8832V16.3583H30.8125V15.2876Z" fill="white"/>
<path d="M22.7812 11.0052H24.9227C25.2183 11.0052 25.4581 10.7654 25.4581 10.4698V3.51001H24.3874V9.93443H22.7812V11.0052Z" fill="white"/>
<path d="M14.7504 4.58075H22.781V3.51001H14.2151C13.9195 3.51001 13.6797 3.74979 13.6797 4.04538V6.72222H14.7504V4.58075Z" fill="white"/>
<path d="M15.2852 14.7529H19.0327C19.3283 14.7529 19.5681 14.5131 19.5681 14.2175V9.93457H18.4974V13.6821H15.2852V14.7529Z" fill="white"/>
<path d="M20.1055 14.2175H21.1762V16.359H20.1055V14.2175Z" fill="white"/>
<path d="M21.1758 30.814H24.9234V31.8847H21.1758V30.814Z" fill="white"/>
<path d="M21.1758 32.9548H25.9941V34.0256H21.1758V32.9548Z" fill="white"/>
<path d="M28.6684 32.9546H27.5977V34.0253H29.2038C29.4994 34.0253 29.7391 33.7856 29.7391 33.49V29.207H28.6684V32.9546Z" fill="white"/>
<path d="M10.4688 24.3892H11.5395V25.4599H10.4688V24.3892Z" fill="white"/>
<path d="M22.7812 24.3892H24.9227V25.4599H22.7812V24.3892Z" fill="white"/>
<path d="M26.5312 22.2473H27.602V23.8534H26.5312V22.2473Z" fill="white"/>
<path d="M25.9961 24.925H27.0668V25.9958H25.9961V24.925Z" fill="white"/>
<path d="M22.7812 26.531H24.3874V27.6017H22.7812V26.531Z" fill="white"/>
<path d="M28.6719 22.2473H29.7426V23.3181H28.6719V22.2473Z" fill="white"/>
<path d="M30.8125 20.1062H32.4186V21.1769H30.8125V20.1062Z" fill="white"/>
<path d="M20.6406 20.1062H23.3175V21.1769H20.6406V20.1062Z" fill="white"/>
<path d="M20.1055 17.4294H21.1762V19.0355H20.1055V17.4294Z" fill="white"/>
</svg>
