<svg width="200" height="200" viewBox="0 0 200 200" fill="none" xmlns="http://www.w3.org/2000/svg">
<path d="M122.634 94.7814C121.375 88.5881 121.018 82.2451 121.576 75.9497C122.36 67.0983 124.516 58.9859 133.532 55.5441C140.588 52.857 150.254 52.6669 156.552 57.3591C162.285 61.6299 164.208 69.2877 165.074 76.3848C165.525 80.0716 165.795 83.7819 165.887 87.4941C165.913 88.5878 165.921 89.7089 165.546 90.7359C165.158 91.7881 164.399 92.6625 163.412 93.1957C162.6 93.6289 161.599 93.8033 160.754 93.4368C159.909 93.0703 159.323 92.0648 159.615 91.1985L159.731 92.2393L157.107 73.7016C156.403 68.731 154.494 63.9545 149.463 61.969C146.403 60.7636 143.165 61.577 140.037 61.9337C135.402 62.459 130.117 64.3543 128.894 69.4837C127.24 76.4181 127.407 84.3699 128.026 91.4219C128.106 92.3431 128.197 93.3094 127.83 94.1561C127.464 95.0029 126.444 95.6438 125.6 95.2714" fill="#0189D5"/>
<path d="M122.88 94.7085C121.983 90.2843 121.547 85.779 121.578 81.2648C121.604 77.5761 121.888 73.8384 122.617 70.2163C123.205 67.3077 124.136 64.4265 125.777 61.9334C127.485 59.3782 129.895 57.371 132.717 56.1533C135.839 54.7813 139.322 54.0757 142.723 53.9307C146.19 53.7837 149.748 54.2325 152.958 55.5986C154.525 56.2579 155.98 57.1579 157.27 58.2662C158.545 59.3882 159.644 60.695 160.531 62.1431C162.38 65.1203 163.426 68.5288 164.108 71.9431C164.918 75.9866 165.284 80.1339 165.498 84.246C165.557 85.3867 165.6 86.5274 165.627 87.6682C165.649 88.7089 165.641 89.7869 165.251 90.7689C164.909 91.614 164.31 92.3299 163.538 92.8151C162.754 93.309 161.668 93.5991 160.794 93.1679C160.106 92.8288 159.63 92.0252 159.865 91.2628L159.357 91.1942L159.473 92.235L159.983 92.1664L158.56 82.1253L157.848 77.1038C157.633 75.5691 157.456 74.0246 157.174 72.4997C156.756 70.2104 156.039 67.9212 154.749 65.9651C153.434 63.9443 151.492 62.4114 149.22 61.6021C146.22 60.5516 143.019 61.3218 139.967 61.6766C137.776 61.9334 135.581 62.4488 133.603 63.4543C131.659 64.4441 129.977 65.969 129.107 68.0015C128.572 69.2481 128.346 70.6279 128.127 71.9588C127.866 73.464 127.682 74.9811 127.554 76.504C127.312 79.6229 127.263 82.7537 127.407 85.8787C127.469 87.3996 127.562 88.9186 127.688 90.4357C127.748 91.1805 127.848 91.9331 127.841 92.6818C127.841 93.3757 127.705 94.1068 127.198 94.6144C126.79 95.0201 126.218 95.2436 125.665 95.0182C125.357 94.8908 125.222 95.3906 125.528 95.516C126.718 96.004 127.894 94.9456 128.207 93.8559C128.413 93.1366 128.37 92.3722 128.307 91.6352C128.244 90.8982 128.18 90.1436 128.125 89.3988C127.903 86.3314 127.794 83.2542 127.874 80.1868C127.93 77.1273 128.243 74.0778 128.811 71.0709C129.058 69.8184 129.322 68.5758 129.957 67.4566C130.493 66.5286 131.204 65.7127 132.049 65.0537C133.768 63.6915 135.918 62.9408 138.044 62.5057C139.267 62.2548 140.512 62.1392 141.749 61.9667C143.281 61.753 144.828 61.5335 146.38 61.6041C149.042 61.7439 151.536 62.944 153.307 64.9361C154.855 66.657 155.776 68.8404 156.337 71.063C156.632 72.3241 156.86 73.5999 157.019 74.885L157.731 79.9066L159.138 89.8516L159.487 92.3134C159.528 92.5995 160.028 92.5348 159.994 92.2448L159.879 91.204C159.873 91.0786 159.779 90.9752 159.654 90.9579C159.53 90.9406 159.411 91.0144 159.371 91.1334C159.12 91.9429 159.477 92.821 160.116 93.3463C160.869 93.9598 161.907 94.0146 162.807 93.7383C163.701 93.4476 164.486 92.8935 165.059 92.1487C165.649 91.3657 166.009 90.4339 166.1 89.4576C166.231 88.3326 166.147 87.1801 166.1 86.0512C166.054 84.8582 165.989 83.6645 165.904 82.4702C165.747 80.1849 165.529 77.9015 165.228 75.6298C164.751 72.0332 164.02 68.4327 162.605 65.0772C161.233 61.8256 159.167 58.862 156.241 56.8315C153.315 54.8009 149.746 53.7896 146.208 53.4995C142.603 53.2155 138.976 53.5955 135.508 54.6206C132.319 55.5555 129.315 57.0686 127.023 59.5206C124.938 61.7511 123.593 64.546 122.749 67.4586C121.796 70.7377 121.396 74.1794 121.181 77.5781C120.884 82.2245 121.081 86.8892 121.769 91.4941C121.937 92.623 122.133 93.7468 122.357 94.8653C122.421 95.1926 122.921 95.0613 122.854 94.7281L122.88 94.7085Z" fill="#0189D5"/>
<path d="M181.222 116.475C181.138 112.659 180.877 108.852 180.438 105.054C179.879 100.214 178.909 95.136 175.692 91.4767C171.259 86.4258 164.264 85.824 157.962 85.926C151.755 86.0279 145.569 86.5845 139.387 87.102C131.92 87.7292 120.734 86.951 115.268 93.1662C113.027 95.7142 112.298 99.2422 111.904 102.606C111.252 108.18 111.357 113.821 112.014 119.389C112.52 123.67 112.798 129.448 115.689 132.87C117.918 135.502 121.591 136.398 125.034 136.576C129.644 136.808 134.348 137.056 138.95 137.011C147.891 136.944 156.797 135.885 165.504 133.856C168.444 133.164 171.384 132.341 174.038 130.873C176.692 129.405 179.024 127.231 180.191 124.442C181.237 121.953 181.282 119.173 181.222 116.475Z" fill="#1FD7F3"/>
<path d="M111.746 105.654C112.744 105.333 113.818 105.337 114.813 105.666C115.55 105.911 116.221 106.327 116.958 106.572C117.695 106.817 118.565 106.864 119.194 106.407C119.796 107.266 121.217 107.111 121.938 106.352C122.659 105.594 122.84 104.476 122.9 103.432C122.969 102.206 122.916 100.976 122.744 99.7607C122.698 99.5773 122.71 99.3841 122.779 99.208C122.864 99.0744 122.989 98.9704 123.136 98.9101C124.116 98.4181 125.503 98.3828 125.95 97.3793C126.223 96.7639 125.97 96.0073 125.486 95.5428C125.002 95.0783 124.337 94.847 123.679 94.7137C120.979 94.1986 118.199 95.0342 116.231 96.952C115.578 97.6008 115.029 98.3632 114.286 98.912" fill="#0189D5"/>
<path d="M111.819 105.903C112.477 105.692 113.174 105.625 113.861 105.707C114.582 105.797 115.233 106.099 115.88 106.395C116.936 106.889 118.257 107.375 119.325 106.626L118.973 106.534C119.482 107.224 120.38 107.385 121.17 107.122C122.087 106.813 122.644 106.003 122.906 105.102C123.216 104.041 123.214 102.873 123.179 101.779C123.158 101.151 123.106 100.524 123.022 99.8997C122.989 99.6469 122.9 99.3607 123.147 99.198C123.332 99.0879 123.529 99.001 123.735 98.9393C124.492 98.6747 125.411 98.5218 125.948 97.8652C126.571 97.1047 126.34 96.0091 125.672 95.3584C124.917 94.6273 123.782 94.4097 122.773 94.3255C121.771 94.2463 120.762 94.3439 119.794 94.6136C118.704 94.9133 117.684 95.4226 116.789 96.113C115.809 96.8715 115.137 97.9436 114.151 98.6825C113.888 98.8785 114.151 99.3293 114.412 99.1294C115.225 98.5199 115.813 97.6927 116.546 96.9989C117.227 96.3634 118.016 95.8532 118.875 95.4917C120.542 94.7763 122.579 94.5626 124.315 95.1604C125.129 95.4427 126.093 96.2423 125.738 97.2204C125.476 97.9495 124.562 98.1416 123.906 98.3513C123.526 98.4466 123.163 98.5979 122.828 98.8001C122.381 99.1118 122.463 99.5841 122.524 100.053C122.666 101.176 122.705 102.311 122.642 103.441C122.585 104.421 122.426 105.623 121.622 106.305C121.034 106.799 119.929 106.979 119.419 106.287C119.345 106.167 119.189 106.125 119.065 106.193C117.957 106.96 116.621 106.164 115.57 105.699C114.353 105.126 112.967 105.024 111.679 105.413C111.364 105.513 111.499 106.013 111.819 105.913V105.903Z" fill="#0189D5"/>
<path d="M181.481 116.474C181.389 112.472 181.114 108.471 180.63 104.498C180.238 101.272 179.65 98.0166 178.278 95.0472C176.983 92.1648 174.796 89.7746 172.04 88.2284C169.425 86.7839 166.461 86.1273 163.51 85.845C160.089 85.5157 156.626 85.6588 153.2 85.8254C149.137 86.0214 145.082 86.3644 141.028 86.7074C138.218 86.9446 135.405 87.0622 132.589 87.219C129.772 87.3758 126.883 87.611 124.096 88.2343C121.507 88.8125 118.933 89.7454 116.813 91.3703C115.675 92.229 114.708 93.2926 113.961 94.5063C113.138 95.9275 112.548 97.4713 112.213 99.0789C111.851 100.779 111.602 102.501 111.468 104.234C111.287 106.232 111.198 108.234 111.199 110.241C111.199 114.016 111.576 117.748 111.983 121.495C112.305 124.479 112.656 127.544 113.853 130.315C114.403 131.661 115.239 132.871 116.303 133.861C117.462 134.857 118.819 135.597 120.284 136.031C121.792 136.484 123.351 136.748 124.925 136.815C126.914 136.925 128.904 137.019 130.895 137.099C134.882 137.262 138.867 137.319 142.851 137.158C150.757 136.858 158.614 135.772 166.305 133.916C169.77 133.069 173.284 131.956 176.165 129.786C177.416 128.861 178.506 127.735 179.39 126.454C180.322 125.04 180.943 123.443 181.208 121.77C181.504 120.018 181.51 118.242 181.473 116.466C181.473 116.135 180.948 116.133 180.956 116.466C180.995 118.271 180.997 120.096 180.666 121.876C180.372 123.542 179.71 125.122 178.729 126.501C176.769 129.21 173.79 130.962 170.693 132.091C168.968 132.699 167.208 133.204 165.423 133.602C163.542 134.045 161.653 134.437 159.754 134.778C155.936 135.476 152.09 135.986 148.216 136.309C140.448 136.958 132.683 136.727 124.911 136.297C121.913 136.131 118.661 135.429 116.427 133.283C114.288 131.229 113.487 128.161 112.993 125.331C112.74 123.861 112.581 122.377 112.422 120.894C112.238 119.163 112.03 117.436 111.903 115.698C111.608 111.787 111.641 107.859 111.999 103.953C112.309 100.698 112.783 97.2267 114.602 94.4318C116.087 92.1601 118.453 90.6235 120.956 89.6749C126.072 87.7384 131.703 87.7854 137.087 87.4973C140.556 87.3111 144.014 86.9407 147.475 86.6839C151.293 86.3997 155.119 86.1665 158.957 86.1567C164.774 86.1429 171.212 86.9211 175.344 91.48C177.518 93.8791 178.676 96.9778 179.37 100.104C180.136 103.587 180.438 107.187 180.681 110.741C180.812 112.645 180.899 114.551 180.942 116.46C180.938 116.609 181.056 116.733 181.205 116.737C181.353 116.74 181.477 116.623 181.481 116.474Z" fill="#0189D5"/>
<path d="M43.0257 129.203C43.5203 135.028 44.7161 140.772 46.587 146.31C43.5059 144.897 40.3941 143.554 37.2515 142.28C36.7576 142.084 36.2382 141.876 35.709 141.937C34.9524 142.023 34.3644 142.617 33.8823 143.205C31.2415 146.45 29.8199 150.517 29.8643 154.701C29.8741 155.467 29.9505 156.269 30.3876 156.904C31.2833 158.188 33.3158 158.109 34.6036 157.217C35.0485 156.91 35.4875 156.51 36.0285 156.5C36.4012 156.528 36.7611 156.648 37.0751 156.851C41.4921 159.178 46.3346 160.586 51.3106 160.99C54.1095 161.216 57.2083 161.014 59.2702 159.105C60.5696 157.899 61.2694 156.165 61.532 154.401C61.7947 152.637 61.6594 150.861 61.532 149.093C61.14 143.916 60.7434 138.74 60.3423 133.564" fill="#0189D5"/>
<path d="M42.7683 129.205C43.1552 133.749 43.9649 138.247 45.1869 142.641C45.5371 143.899 45.9213 145.145 46.3394 146.38L46.7177 146.088C43.8234 144.763 40.8984 143.496 37.9428 142.286C37.2724 142.009 36.5453 141.627 35.7985 141.672C35.1576 141.712 34.6108 142.064 34.1658 142.507C33.703 142.987 33.2833 143.506 32.9114 144.06C30.9295 146.875 29.7895 150.195 29.6245 153.634C29.5657 154.859 29.4952 156.378 30.4085 157.331C31.1455 158.115 32.3117 158.262 33.3191 158.048C33.8531 157.934 34.3585 157.712 34.8048 157.397C35.0516 157.204 35.3138 157.031 35.5888 156.88C35.9273 156.725 36.3191 156.74 36.6452 156.919C37.3156 157.227 37.9565 157.593 38.6268 157.899C39.2971 158.205 39.9655 158.497 40.6476 158.766C43.404 159.856 46.2817 160.611 49.2186 161.014C51.7666 161.364 54.5381 161.602 57.0136 160.729C58.1993 160.329 59.2514 159.609 60.0535 158.648C60.8669 157.608 61.423 156.39 61.6764 155.094C61.9959 153.591 61.9841 152.041 61.892 150.514C61.796 148.899 61.6529 147.286 61.5294 145.673C61.2811 142.418 61.0316 139.162 60.7807 135.906L60.6023 133.554C60.5768 133.225 60.0594 133.221 60.0849 133.554L60.8003 142.944L61.1531 147.629C61.2707 149.158 61.4255 150.692 61.4236 152.227C61.4236 154.828 60.8003 157.737 58.5639 159.35C56.5804 160.782 53.9677 160.918 51.6118 160.751C48.7842 160.549 45.9902 160.015 43.2877 159.159C41.9243 158.731 40.5873 158.223 39.2834 157.639C38.6301 157.346 37.9904 157.035 37.3646 156.708C36.7766 156.402 36.1886 156.088 35.5202 156.341C34.9714 156.551 34.5559 156.992 34.0326 157.252C33.5683 157.482 33.059 157.607 32.541 157.617C32.0489 157.638 31.5612 157.516 31.1376 157.264C30.6662 156.946 30.3432 156.452 30.2419 155.892C30.1215 155.252 30.0839 154.599 30.1302 153.95C30.1478 153.288 30.2048 152.627 30.3007 151.972C30.4935 150.668 30.8287 149.389 31.3003 148.158C31.774 146.923 32.3862 145.745 33.1251 144.648C33.4843 144.097 33.8826 143.573 34.3168 143.08C34.7264 142.627 35.2419 142.178 35.8848 142.17C36.6021 142.17 37.3332 142.562 37.982 142.839C38.6915 143.131 39.4003 143.426 40.1086 143.723C41.5315 144.322 42.9479 144.938 44.3578 145.569C45.0595 145.88 45.7586 146.196 46.455 146.517C46.651 146.604 46.9137 146.459 46.8353 146.225C45.3844 141.926 44.3384 137.501 43.711 133.007C43.5346 131.738 43.3922 130.465 43.2838 129.187C43.2563 128.858 42.7389 128.856 42.7663 129.187L42.7683 129.205Z" fill="#0189D5"/>
<path d="M64.0703 134.251C64.9386 144.335 65.8128 154.439 67.7688 164.376C68.1079 166.105 68.7234 168.112 70.3972 168.662C71.1283 168.905 71.924 168.802 72.6884 168.698L79.7288 167.731C80.8224 167.58 81.9259 167.428 82.9628 167.047C84.3348 166.546 85.5245 165.675 86.8553 165.076C87.3551 164.852 87.9039 164.646 88.2136 164.198C88.6213 163.61 88.4664 162.765 88.0294 162.198C87.5923 161.632 86.9298 161.285 86.2752 160.993C85.4421 160.622 84.5841 160.31 83.7076 160.058C83.2509 159.927 82.7472 159.782 82.4904 159.382C82.3424 159.102 82.2669 158.79 82.2709 158.474L80.0306 126.816" fill="#0189D5"/>
<path d="M63.8125 134.252C64.0967 137.556 64.3829 140.861 64.7063 144.162C65.0297 147.462 65.3864 150.726 65.8215 153.997C66.2566 157.268 66.7682 160.539 67.3895 163.797C67.6188 164.996 67.8521 166.233 68.4695 167.305C69.0869 168.377 70.0865 169.059 71.3526 169.081C72.1366 169.093 72.9402 168.932 73.7203 168.826L76.1801 168.487C77.8245 168.262 79.4827 168.077 81.1173 167.793C81.8837 167.672 82.6343 167.467 83.3557 167.182C84.0423 166.88 84.7105 166.539 85.3568 166.159C86.0036 165.794 86.6543 165.463 87.3286 165.157C87.895 164.902 88.434 164.551 88.63 163.93C88.7934 163.325 88.6777 162.678 88.3145 162.166C87.9028 161.626 87.3577 161.202 86.7327 160.935C86.0551 160.611 85.3579 160.33 84.6453 160.092C84.2886 159.973 83.928 159.869 83.5673 159.759C83.2603 159.696 82.9783 159.545 82.7559 159.324C82.5285 159.044 82.5383 158.632 82.5148 158.293L82.4286 157.072L82.2483 154.524L81.8915 149.493L81.184 139.373L80.4725 129.309L80.2961 126.818C80.2726 126.486 79.7551 126.484 79.7787 126.818L80.4764 136.686L81.1761 146.555L81.8739 156.423C81.9288 157.207 81.9503 158.009 82.0483 158.791C82.0993 159.405 82.5097 159.93 83.093 160.128C83.7653 160.396 84.4827 160.555 85.1608 160.81C85.8398 161.044 86.4927 161.348 87.1091 161.717C87.6539 162.068 88.1341 162.588 88.1929 163.262C88.2517 163.936 87.8009 164.361 87.2129 164.634C86.5661 164.941 85.9213 165.239 85.2941 165.59C84.6669 165.941 84.0299 166.313 83.3635 166.607C81.9288 167.244 80.3373 167.391 78.7987 167.587L73.932 168.27C73.1405 168.41 72.3414 168.505 71.5388 168.552C70.9008 168.591 70.2693 168.406 69.7533 168.028C68.8693 167.342 68.4714 166.178 68.2088 165.134C67.8442 163.683 67.6208 162.194 67.366 160.718C67.0916 159.125 66.8407 157.528 66.6133 155.927C66.1547 152.715 65.7764 149.493 65.4373 146.267C65.0983 143.04 64.8141 139.822 64.5338 136.598C64.4671 135.814 64.4018 135.03 64.3378 134.246C64.3084 133.917 63.7909 133.913 63.8203 134.246L63.8125 134.252Z" fill="#0189D5"/>
<path d="M87.9141 102.271C90.8834 105.865 95.4312 107.767 100.075 107.357C104.719 106.947 108.863 104.279 111.158 100.221C111.773 99.1349 112.247 97.9589 113.01 96.971C115.117 94.227 118.996 93.4587 122.402 93.6723C122.825 93.6894 123.216 93.9006 123.463 94.2447C124.051 95.1169 123.112 96.0655 122.232 96.483C120.885 97.1203 119.409 97.4357 117.92 97.4042C118.553 96.8862 119.45 96.8417 120.131 97.2945C120.813 97.7473 121.119 98.5915 120.887 99.3759C121.276 99.1541 121.746 99.1233 122.16 99.2923C122.575 99.4614 122.889 99.8117 123.012 100.242C123.372 101.52 123.103 102.892 122.287 103.939C121.863 104.456 121.234 104.886 120.572 104.797C119.909 104.709 119.378 103.882 119.766 103.337C119.57 104.343 118.433 104.864 117.414 104.958C116.395 105.052 113.276 104.731 112.318 105.113C111.579 105.413 111.007 106.001 110.413 106.53C105.438 110.975 93.6216 112.739 88.4354 106.904" fill="white"/>
<path d="M87.9141 102.271L88.4354 106.905C90.0289 108.698 92.2515 109.772 94.7074 110.272C94.7623 110.062 94.8113 109.853 94.8525 109.641C95.0228 108.73 95.0977 107.804 95.0759 106.877C92.2777 106.102 89.7806 104.496 87.9141 102.271Z" fill="#0189D5"/>
<path d="M87.65 102.272L88.042 105.684C88.0871 106.086 88.1125 106.499 88.1792 106.899C88.2184 107.13 88.4614 107.311 88.6221 107.471C88.8364 107.686 89.0612 107.89 89.2964 108.083C89.7624 108.467 90.2608 108.81 90.786 109.108C91.99 109.777 93.2917 110.251 94.6433 110.515C94.7804 110.551 94.9209 110.471 94.9608 110.335C95.2403 109.203 95.3675 108.038 95.3391 106.872C95.3355 106.755 95.256 106.654 95.1431 106.623C92.3875 105.855 89.9281 104.273 88.0871 102.083C87.8734 101.827 87.5108 102.193 87.7205 102.448C89.6242 104.702 92.162 106.331 95.0039 107.123L94.8079 106.872C94.8364 107.993 94.7157 109.114 94.4492 110.204L94.7667 110.021C92.4363 109.543 90.2156 108.516 88.6084 106.723L88.6829 106.905L88.238 102.848L88.1733 102.272C88.1341 101.944 87.6167 101.94 87.65 102.272Z" fill="#0189D5"/>
<path d="M87.7311 102.453C89.8396 104.954 92.7232 106.678 95.9239 107.353C99.0637 108.014 102.335 107.592 105.205 106.157C108.073 104.738 110.396 102.414 111.814 99.5444C112.237 98.7212 112.643 97.8745 113.209 97.1356C113.668 96.5418 114.22 96.0261 114.844 95.6087C116.123 94.7882 117.567 94.2601 119.073 94.0623C119.824 93.9504 120.582 93.896 121.341 93.8996C122.017 93.8996 123.121 93.7918 123.364 94.6287C123.578 95.3637 122.65 96.0007 122.102 96.2614C121.229 96.6769 120.297 96.9508 119.338 97.0728C118.866 97.1319 118.391 97.1568 117.915 97.1473L118.097 97.5883C118.648 97.1555 119.415 97.1287 119.994 97.522C120.573 97.9152 120.831 98.6381 120.632 99.3092C120.605 99.4108 120.641 99.5188 120.723 99.5837C120.806 99.6485 120.92 99.6578 121.012 99.6071C121.452 99.3645 121.995 99.4142 122.384 99.7326C122.852 100.125 122.905 100.86 122.899 101.426C122.899 102.086 122.729 102.736 122.405 103.312C122.092 103.864 121.572 104.446 120.91 104.546C120.597 104.603 120.277 104.485 120.077 104.237C119.878 104.032 119.84 103.72 119.985 103.474L119.513 103.278C119.271 104.431 117.876 104.727 116.874 104.727C115.777 104.727 114.681 104.64 113.584 104.682C113.144 104.674 112.705 104.735 112.284 104.862C111.598 105.115 111.041 105.624 110.52 106.108C109.771 106.792 108.947 107.389 108.064 107.888C106.119 108.954 104.007 109.683 101.818 110.044C99.5508 110.464 97.2266 110.47 94.9576 110.062C92.8448 109.656 90.7789 108.8 89.1972 107.318C89.0012 107.134 88.815 106.939 88.6366 106.73C88.4132 106.481 88.0486 106.847 88.2701 107.094C89.7578 108.758 91.7981 109.817 93.9365 110.364C96.2463 110.92 98.641 111.031 100.992 110.691C103.292 110.402 105.528 109.734 107.609 108.715C108.528 108.257 109.394 107.7 110.193 107.055C110.72 106.632 111.183 106.128 111.735 105.736C112.155 105.43 112.652 105.249 113.17 105.215C114.307 105.123 115.455 105.215 116.596 105.234C117.67 105.25 118.901 105.091 119.626 104.197C119.813 103.97 119.943 103.701 120.004 103.413C120.029 103.291 119.964 103.169 119.849 103.121C119.734 103.074 119.601 103.114 119.532 103.217C119.122 103.845 119.542 104.666 120.169 104.958C120.977 105.334 121.884 104.803 122.409 104.194C122.97 103.529 123.312 102.708 123.389 101.842C123.47 101.087 123.415 100.111 122.895 99.5111C122.348 98.903 121.453 98.7549 120.739 99.1544L121.12 99.4464C121.382 98.5494 121.027 97.5863 120.245 97.0744C119.463 96.5626 118.438 96.6224 117.721 97.2218C117.525 97.3668 117.7 97.6608 117.903 97.6628C118.878 97.6832 119.851 97.5597 120.79 97.2963C121.633 97.0591 122.531 96.7377 123.191 96.1458C123.734 95.6597 124.12 94.909 123.732 94.2093C123.301 93.4253 122.435 93.3998 121.651 93.3841C118.617 93.3253 115.23 94.0525 113.131 96.4084C111.929 97.7569 111.367 99.517 110.363 100.999C107.557 105.111 102.787 107.435 97.8192 107.112C94.4522 106.84 91.2911 105.381 88.8993 102.996C88.6131 102.708 88.3407 102.408 88.082 102.094C87.8683 101.838 87.5057 102.204 87.7154 102.459L87.7311 102.453Z" fill="#0189D5"/>
<path d="M88.7225 97.7857C88.7343 93.6246 89.2439 89.44 88.3168 85.3318C87.7445 82.7838 86.5881 80.5338 85.4925 78.1955C83.9049 74.8047 83.75 71.0121 82.9837 67.4018C81.6509 61.1141 76.3726 56.412 70.1378 55.2811C64.1049 54.1855 56.3806 55.1047 51.0376 58.2211C42.4136 63.2466 37.1941 75.1496 34.2855 84.2538C30.6105 95.7532 29.5815 109.75 34.8735 120.931C41.2827 134.455 61.7686 139.159 75.1554 134.122C86.7194 129.769 93.1129 117.637 89.5026 104.701C88.8656 102.409 88.7167 100.1 88.7225 97.7857Z" fill="#1FD7F3"/>
<path d="M34.8694 109.589C34.451 110.899 33.9 112.163 33.225 113.362C33.0899 113.634 32.9082 113.881 32.6879 114.091C32.5292 113.599 32.3841 113.111 32.2548 112.605C32.0989 112.075 32.0088 111.528 31.9862 110.976C31.9657 110.422 32.1148 109.875 32.4135 109.408" fill="#0189D5"/>
<path d="M34.6224 109.519C34.3672 110.316 34.0628 111.097 33.711 111.856C33.5398 112.219 33.3595 112.577 33.17 112.93C33.0061 113.292 32.7821 113.623 32.5076 113.91L32.9388 114.023C32.6761 113.261 32.4684 112.481 32.3174 111.689C32.192 110.956 32.2234 110.184 32.6428 109.547C32.827 109.269 32.3782 109.01 32.1959 109.286C31.7471 109.968 31.6746 110.795 31.7824 111.587C31.9252 112.463 32.1456 113.324 32.4409 114.161C32.4667 114.248 32.5363 114.316 32.6245 114.339C32.7127 114.362 32.8066 114.338 32.8721 114.274C33.1619 113.981 33.3998 113.64 33.5758 113.267C33.7822 112.891 33.9782 112.508 34.1638 112.118C34.5345 111.319 34.8552 110.498 35.1242 109.659C35.228 109.339 34.7322 109.204 34.6263 109.519H34.6224Z" fill="#0189D5"/>
<path d="M88.9828 97.785C89.0024 92.9457 89.6238 88.0104 88.0166 83.3358C87.2737 81.1798 86.1114 79.21 85.302 77.0834C84.4925 74.9568 84.1514 72.7362 83.7986 70.5174C83.4772 68.5006 83.1695 66.4838 82.3678 64.5904C81.6797 62.979 80.7264 61.4943 79.5474 60.198C77.1554 57.5901 73.9994 55.8063 70.5314 55.102C66.6565 54.318 62.5483 54.4396 58.6812 55.1942C54.969 55.9194 51.4292 57.3325 48.4461 59.6767C45.5806 61.9248 43.2619 64.8158 41.3176 67.8754C39.3509 71.0359 37.6754 74.3685 36.3118 77.8322C33.3267 85.2312 31.304 93.0476 30.9884 101.046C30.7912 105.309 31.1676 109.579 32.1076 113.741C32.9484 117.338 34.242 120.974 36.3627 124.025C39.9691 129.204 45.6276 132.604 51.5547 134.496C57.6562 136.436 64.3339 136.924 70.6235 135.672C73.8415 135.059 76.9203 133.864 79.7081 132.144C82.5642 130.352 85.0052 127.972 86.868 125.162C90.8076 119.19 91.6778 111.711 89.8276 104.861C89.2004 102.534 88.9907 100.188 88.9926 97.785C88.9926 97.6421 88.8768 97.5262 88.7339 97.5262C88.591 97.5262 88.4752 97.6421 88.4752 97.785C88.4752 100.159 88.6516 102.524 89.2808 104.821C89.7783 106.632 90.0864 108.49 90.2 110.364C90.4172 113.805 89.8987 117.253 88.679 120.478C86.2506 126.822 81.035 131.75 74.6494 134.023C68.836 136.099 62.368 136.283 56.3273 135.154C50.1984 134.008 44.1224 131.43 39.6085 127.03C37.3449 124.806 35.5676 122.136 34.389 119.19C32.821 115.364 31.9508 111.274 31.6254 107.16C30.9786 98.9923 32.3682 90.7701 34.9574 83.032C37.2251 76.2544 40.2004 69.4061 44.8554 63.9044C47.1564 61.1878 49.9083 58.8652 53.1815 57.4188C56.8173 55.8116 60.8725 55.1177 64.8298 55.0981C68.5008 55.0805 72.1994 55.6273 75.4138 57.505C78.4322 59.269 80.8704 62.0267 82.1111 65.3097C82.8265 67.2011 83.0793 69.2297 83.3988 71.2152C83.7457 73.3849 84.1299 75.5723 84.9668 77.6166C85.8037 79.6608 86.915 81.6189 87.6148 83.7455C88.3635 86.0171 88.5948 88.3966 88.6202 90.778C88.6438 93.1162 88.483 95.4506 88.4732 97.7869C88.4955 97.9105 88.6033 98.0003 88.7289 97.9998C88.8544 97.9993 88.9615 97.9087 88.9828 97.785Z" fill="#0189D5"/>
<path d="M94.7759 87.4121C94.7759 87.3435 94.7582 87.2769 94.7504 87.2161C94.5877 85.9284 94.2898 84.5015 92.9629 83.9782C91.8496 83.5411 90.5481 83.743 89.4074 83.9547C78.5165 85.9624 67.3631 86.0983 56.4265 84.3565C54.6939 84.0801 49.6586 82.6924 49.0706 85.409C48.9318 86.1227 49.2597 86.8462 49.8879 87.2122C50.5485 87.5768 51.356 87.4552 52.1047 87.367C54.3506 87.1008 56.6258 87.2335 58.8255 87.759C59.9584 88.0315 61.154 88.4705 61.793 89.4466C62.5868 90.6638 62.2614 92.2004 62.2183 93.5626C62.2097 94.9518 62.7047 96.2971 63.6119 97.3493C64.9995 98.9781 67.1849 99.6131 69.2527 99.7248C72.3182 99.8914 76.8615 99.4269 77.4161 95.6088C77.5729 94.5328 77.5671 93.2725 78.3961 92.4532C78.8473 92.0462 79.4123 91.787 80.0151 91.7104C80.9206 91.5614 81.9183 91.7104 82.6141 92.2984C83.5823 93.1275 83.6999 94.5093 83.9704 95.6716C84.2409 96.8338 84.8269 97.8687 85.9304 98.3724C86.9966 98.8585 88.1452 98.7154 89.2624 98.5684C90.5521 98.4136 92.1828 98.2548 93.2451 97.4277C94.1036 96.7613 94.4093 95.7402 94.6171 94.7229C95.1287 92.32 95.0699 89.8484 94.7759 87.4121Z" fill="#0189D5"/>
<path d="M95.0343 87.4126C94.9285 86.5522 94.8109 85.6486 94.3738 84.8921C93.8877 84.0414 93.0489 83.6181 92.0983 83.4965C90.9517 83.3515 89.807 83.6181 88.6839 83.818C87.4374 84.0388 86.1869 84.2348 84.9325 84.406C79.9659 85.0844 74.9543 85.378 69.9424 85.2841C67.4271 85.2383 64.9157 85.0946 62.4082 84.8529C60.2385 84.6451 58.0511 84.404 55.9088 83.9924C54.6054 83.7415 53.2863 83.4711 51.9535 83.4907C50.7775 83.5063 49.384 83.7964 48.9116 85.0273C48.6011 85.8548 48.8762 86.7879 49.5859 87.3146C50.4933 87.9791 51.7419 87.6361 52.7591 87.5498C53.9776 87.4495 55.203 87.4659 56.4184 87.5988C57.5781 87.7008 58.7209 87.945 59.821 88.326C60.7598 88.6749 61.585 89.2805 61.8947 90.2742C62.2043 91.2679 62.0142 92.3714 61.9691 93.4102C61.9083 95.5181 62.9476 97.506 64.7131 98.6591C66.2968 99.6959 68.2274 99.9939 70.0855 100.013C71.5653 100.029 73.1039 99.8919 74.4955 99.3569C75.8871 98.8218 77.0141 97.879 77.4825 96.4541C77.7667 95.5839 77.7138 94.6489 77.9569 93.7689C78.0713 93.2946 78.3269 92.8661 78.6899 92.54C79.1044 92.222 79.5977 92.0228 80.1168 91.9637C81.1105 91.8148 82.2061 92.0617 82.8157 92.9163C83.3743 93.7003 83.4821 94.7019 83.684 95.6152C83.88 96.4992 84.2465 97.3792 84.9149 98.0084C85.7126 98.7649 86.8004 99.008 87.8725 98.9747C88.4311 98.957 88.9858 98.8806 89.5405 98.8139C90.0246 98.7551 90.5107 98.6963 90.9889 98.6062C91.9454 98.4259 92.9489 98.1181 93.6623 97.4302C94.3758 96.7422 94.6913 95.6975 94.8873 94.7215C95.1271 93.5104 95.2492 92.279 95.2519 91.0445C95.253 89.8337 95.1783 88.6239 95.0285 87.4224C94.9893 87.0951 94.4718 87.0912 94.511 87.4224C94.7972 89.8293 94.8658 92.2911 94.3699 94.6744C94.1739 95.6348 93.874 96.6501 93.0547 97.2675C92.2884 97.8555 91.2907 98.0515 90.3597 98.1907C89.3386 98.3435 88.2586 98.5258 87.2237 98.4455C86.2131 98.3942 85.2915 97.8517 84.7561 96.9931C83.8075 95.4447 84.2269 93.2338 82.6707 92.0304C81.1771 90.8759 78.441 91.3052 77.6472 93.1005C77.2767 93.9394 77.2924 94.8508 77.1278 95.7367C77.0056 96.4497 76.6842 97.1136 76.2007 97.6517C75.2403 98.6963 73.7997 99.1393 72.4375 99.349C70.922 99.586 69.378 99.5727 67.8668 99.3098C65.9068 98.9511 64.0957 97.9888 63.1236 96.1915C62.6293 95.2676 62.4089 94.2218 62.4885 93.177C62.5473 92.1715 62.6845 91.1268 62.3847 90.1429C61.7575 88.0967 59.4545 87.5675 57.5964 87.2539C56.3988 87.0505 55.1849 86.9593 53.9704 86.9814C53.3824 86.9932 52.7807 87.0324 52.1907 87.0971C51.6772 87.1876 51.1547 87.2159 50.6345 87.1813C50.1874 87.142 49.783 86.9002 49.5369 86.5249C49.2908 86.1496 49.2301 85.6823 49.3722 85.2566C49.5486 84.7851 49.9292 84.419 50.4071 84.2609C51.6027 83.8141 53.0257 84.0218 54.2507 84.2217C54.8269 84.3158 55.3973 84.4334 55.9696 84.5393C56.928 84.7196 57.8963 84.845 58.8625 84.9744C61.2773 85.2958 63.7031 85.5271 66.14 85.6682C71.0089 85.9473 75.8918 85.8615 80.7479 85.4115C83.1665 85.1854 85.5747 84.8711 87.9725 84.4687C89.0897 84.2727 90.2206 83.9905 91.3613 83.9787C92.3276 83.9689 93.335 84.2061 93.8701 85.0783C94.2993 85.7721 94.4111 86.6227 94.5091 87.4185C94.5561 87.738 95.0735 87.7419 95.0343 87.4126Z" fill="#0189D5"/>
<path d="M35.0854 105.082C28.1727 107.998 22.8128 113.697 20.3266 120.776C19.4329 123.373 18.8997 126.201 17.1573 128.322C16.6085 128.99 15.9558 129.564 15.3678 130.196C13.9818 131.689 12.9619 133.484 12.3886 135.439C12.0437 136.615 13.4725 137.498 14.3486 136.642C15.1671 135.854 15.6873 134.807 15.8206 133.678C14.9215 134.961 14.5599 136.545 14.8131 138.09C14.9 138.648 15.3387 139.086 15.897 139.17C16.5183 139.249 16.8515 138.778 17.1142 138.343C17.9374 136.946 18.4825 135.402 18.7194 133.798C17.416 135.192 17.2377 137.534 18.4254 139.066C18.6624 139.384 19.0433 139.561 19.4387 139.537C20.1385 139.48 20.3697 138.808 20.5305 138.224L22.024 132.736C22.2445 132.936 22.4526 133.149 22.6473 133.375C23.0764 133.888 23.7567 134.119 24.4096 133.972C25.0625 133.825 25.5784 133.325 25.746 132.677C25.912 132.013 25.9623 131.325 25.895 130.644C25.7872 129.58 25.4011 128.569 25.1267 127.536C23.1108 119.924 27.3246 112.05 34.7757 109.504" fill="white"/>
<path d="M35.014 104.833C32.2515 105.987 29.7042 107.6 27.4798 109.604C25.2488 111.609 23.367 113.972 21.9114 116.595C21.1899 117.898 20.582 119.261 20.0945 120.668C19.5594 122.216 19.1674 123.804 18.5598 125.335C18.2646 126.097 17.8894 126.827 17.4406 127.51C16.9225 128.228 16.3357 128.893 15.6884 129.496C14.4941 130.67 13.5225 132.05 12.8209 133.571C12.6458 133.954 12.4897 134.346 12.3525 134.747C12.2063 135.081 12.1175 135.437 12.0898 135.801C12.1004 136.369 12.438 136.879 12.9562 137.11C13.5062 137.359 14.1529 137.234 14.5712 136.799C15.1365 136.242 15.5693 135.564 15.8374 134.817C15.9661 134.449 16.0516 134.068 16.0922 133.68C16.1235 133.402 15.7394 133.363 15.61 133.549C14.8189 134.686 14.4249 136.052 14.4889 137.436C14.4836 137.855 14.5734 138.27 14.7515 138.649C15.118 139.3 16.0059 139.678 16.6762 139.237C16.9878 139.004 17.2391 138.699 17.4093 138.349C17.6551 137.927 17.8763 137.491 18.0718 137.044C18.5088 136.027 18.8144 134.959 18.9812 133.865C19.0145 133.633 18.7421 133.402 18.548 133.614C17.308 134.988 17.0344 136.981 17.8581 138.639C18.0659 139.031 18.3403 139.449 18.7558 139.653C19.1575 139.858 19.6363 139.842 20.0239 139.611C20.3451 139.373 20.577 139.033 20.6825 138.647C20.8785 138.1 20.998 137.526 21.1509 136.967L22.2838 132.81L21.8506 132.924C22.2289 133.271 22.5347 133.72 22.9816 133.986C23.3231 134.191 23.7167 134.292 24.1144 134.276C24.9024 134.248 25.6025 133.766 25.9098 133.04C26.1098 132.482 26.2061 131.893 26.194 131.301C26.1916 130.694 26.1139 130.09 25.9627 129.502C25.6687 128.298 25.2493 127.15 25.0631 125.911C24.0081 118.866 28.1284 112.071 34.8631 109.749C35.1767 109.641 35.0414 109.141 34.7259 109.251C27.3008 111.802 23.0103 119.557 24.7946 127.203C25.0768 128.412 25.5786 129.586 25.6707 130.835C25.7373 131.801 25.6903 133.226 24.6299 133.649C24.2475 133.802 23.8201 133.799 23.4402 133.639C22.9365 133.426 22.617 132.918 22.225 132.559C22.1595 132.495 22.065 132.47 21.9761 132.493C21.8873 132.516 21.8173 132.585 21.7918 132.673L20.9059 135.887L20.4806 137.446C20.3885 137.876 20.262 138.298 20.1023 138.708C19.9612 139.019 19.7378 139.276 19.3732 139.282C18.9204 139.282 18.6323 138.945 18.4206 138.59C18.022 137.913 17.8427 137.129 17.9071 136.346C17.9653 135.467 18.3189 134.633 18.9106 133.98L18.4775 133.729C18.2491 135.38 17.6761 136.964 16.7958 138.379C16.6312 138.631 16.4136 138.894 16.0882 138.918C15.7623 138.929 15.4529 138.774 15.267 138.506C15.0553 138.214 15.0298 137.834 15.0083 137.483C14.9834 137.086 14.9998 136.688 15.0573 136.295C15.1939 135.402 15.5339 134.551 16.051 133.81L15.5688 133.678C15.4753 134.442 15.1901 135.17 14.7398 135.793C14.4164 136.254 13.9558 136.862 13.3207 136.695C12.8213 136.572 12.5125 136.071 12.6269 135.57C12.8272 134.801 13.1166 134.057 13.4893 133.355C13.8398 132.654 14.2524 131.987 14.7221 131.36C15.2252 130.716 15.7741 130.109 16.3646 129.545C16.9559 128.977 17.486 128.349 17.9463 127.671C18.352 127.033 18.6972 126.359 18.9773 125.656C19.5653 124.216 19.9573 122.701 20.4473 121.223C20.8898 119.872 21.4451 118.56 22.1074 117.303C23.4373 114.789 25.1626 112.506 27.2171 110.541C29.2672 108.57 31.6254 106.948 34.1986 105.739C34.5135 105.592 34.8317 105.452 35.1532 105.317C35.455 105.192 35.3217 104.692 35.014 104.819V104.833Z" fill="#0189D5"/>
<path d="M142.953 105.571C141.307 103.415 137.443 103.825 135.309 104.828C133.261 105.791 132.116 107.88 133.898 109.703C134.462 110.291 135.164 110.701 135.836 111.147C135.979 111.231 136.104 111.34 136.207 111.469C136.323 111.675 136.383 111.907 136.383 112.143C136.465 113.119 136.547 114.096 136.628 115.073C136.706 116.02 136.824 117.061 137.524 117.71C138.345 118.474 139.844 118.298 140.464 117.351C140.952 116.602 140.868 115.632 140.764 114.744L140.458 112.112C140.421 111.792 140.389 111.445 140.562 111.171C140.793 110.801 141.287 110.726 141.693 110.561C142.951 110.048 143.457 108.515 143.457 107.157C143.47 106.587 143.293 106.029 142.953 105.571Z" fill="#0189D5"/>
<path d="M143.136 105.388C141.628 103.446 138.653 103.513 136.511 104.112C135.313 104.447 134.133 105.018 133.375 106.035C132.574 107.061 132.585 108.504 133.4 109.518C133.902 110.169 134.592 110.639 135.274 111.086C135.623 111.315 136.034 111.49 136.105 111.941C136.176 112.391 136.185 112.834 136.221 113.277C136.291 114.118 136.334 114.969 136.448 115.806C136.542 116.498 136.726 117.197 137.193 117.736C137.998 118.663 139.545 118.661 140.413 117.815C140.931 117.307 141.093 116.562 141.099 115.855C141.099 115.028 140.956 114.195 140.86 113.373C140.809 112.924 140.75 112.476 140.703 112.025C140.664 111.633 140.674 111.266 141.064 111.064C141.362 110.91 141.701 110.849 142.001 110.696C142.278 110.55 142.526 110.356 142.734 110.122C143.155 109.629 143.445 109.038 143.577 108.403C143.753 107.727 143.765 107.018 143.612 106.337C143.526 106.012 143.379 105.706 143.179 105.435C142.983 105.171 142.534 105.435 142.732 105.696C143.467 106.69 143.281 108.244 142.702 109.277C142.43 109.792 141.973 110.185 141.422 110.378C141.121 110.46 140.836 110.593 140.58 110.77C140.324 110.98 140.174 111.292 140.17 111.623C140.172 112.023 140.208 112.423 140.278 112.817C140.325 113.224 140.372 113.63 140.421 114.038C140.507 114.781 140.648 115.551 140.556 116.3C140.48 116.919 140.186 117.476 139.608 117.75C139.117 117.984 138.547 117.988 138.053 117.76C137.485 117.478 137.201 116.882 137.06 116.292C136.885 115.572 136.864 114.816 136.805 114.079C136.772 113.671 136.738 113.262 136.703 112.852C136.695 112.457 136.655 112.064 136.581 111.676C136.475 111.34 136.243 111.059 135.933 110.892C135.607 110.676 135.278 110.469 134.953 110.243C133.908 109.502 132.92 108.395 133.402 107.033C133.794 105.915 134.915 105.208 135.978 104.818C137.003 104.439 138.089 104.25 139.182 104.259C140.239 104.273 141.373 104.496 142.214 105.177C142.42 105.345 142.605 105.536 142.767 105.747C142.975 106.017 143.337 105.649 143.136 105.388Z" fill="#0189D5"/>
<path d="M52.8235 85.147L53.0704 85.7487C53.0907 85.8128 53.1331 85.8677 53.19 85.9035C53.2491 85.9385 53.3199 85.9477 53.386 85.929C53.4508 85.9113 53.5063 85.8691 53.5408 85.8114C53.5769 85.7527 53.5862 85.6814 53.5663 85.6154L53.3213 85.0137C53.3003 84.95 53.2581 84.8953 53.2017 84.8589C53.1425 84.8243 53.0718 84.8152 53.0057 84.8334C52.9409 84.8511 52.8854 84.8933 52.8509 84.951C52.8166 85.0103 52.8074 85.0809 52.8254 85.147H52.8235Z" fill="white"/>
<path d="M53.937 84.7839L54.4133 85.8149C54.4856 85.9373 54.6431 85.9785 54.7661 85.907C54.8865 85.8333 54.9279 85.6781 54.8601 85.5542L54.3858 84.5154C54.3142 84.3922 54.1565 84.3502 54.033 84.4213C53.9123 84.4957 53.8709 84.6516 53.9389 84.7761L53.937 84.7839Z" fill="white"/>
<path d="M66.0142 93.6099C67.8095 92.0876 69.5566 90.5105 71.2552 88.8784C71.4963 88.6491 71.1298 88.2904 70.8907 88.5139C69.192 90.1446 67.4443 91.7211 65.6477 93.2434C65.3948 93.459 65.7613 93.8314 66.0142 93.6099Z" fill="white"/>
<path d="M66.4909 97.0183C69.2503 95.1515 71.7644 92.9455 73.9742 90.4523C74.1957 90.2054 73.8311 89.8369 73.6096 90.0878C71.4299 92.5483 68.9508 94.7265 66.2302 96.5715C65.9558 96.7557 66.2145 97.2045 66.4909 97.0183Z" fill="white"/>
<path d="M75.3017 89.0233C75.4446 89.0233 75.5604 88.9075 75.5604 88.7646C75.5604 88.6217 75.4446 88.5059 75.3017 88.5059C75.1588 88.5059 75.043 88.6217 75.043 88.7646C75.043 88.9075 75.1588 89.0233 75.3017 89.0233Z" fill="white"/>
<path d="M75.1884 91.621C75.3313 91.621 75.4471 91.5051 75.4471 91.3622C75.4471 91.2193 75.3313 91.1035 75.1884 91.1035C75.0455 91.1035 74.9297 91.2193 74.9297 91.3622C74.9297 91.5051 75.0455 91.621 75.1884 91.621Z" fill="white"/>
<path d="M91.9631 86.3471C91.1459 87.9328 90.1368 89.4119 88.9585 90.7512C88.7389 91.0001 89.1035 91.3666 89.325 91.1177C90.5337 89.7468 91.5698 88.2329 92.41 86.6097C92.5609 86.3138 92.116 86.0531 91.9631 86.349V86.3471Z" fill="white"/>
<path d="M87.3915 92.7694C87.5344 92.7694 87.6503 92.6536 87.6503 92.5107C87.6503 92.3678 87.5344 92.252 87.3915 92.252C87.2486 92.252 87.1328 92.3678 87.1328 92.5107C87.1328 92.6536 87.2486 92.7694 87.3915 92.7694Z" fill="white"/>
<path d="M89.0868 92.8885C89.2297 92.8885 89.3456 92.7727 89.3456 92.6298C89.3456 92.4869 89.2297 92.3711 89.0868 92.3711C88.944 92.3711 88.8281 92.4869 88.8281 92.6298C88.8281 92.7727 88.944 92.8885 89.0868 92.8885Z" fill="white"/>
<path d="M87.8759 94.6405C88.0188 94.6405 88.1346 94.5247 88.1346 94.3818C88.1346 94.2389 88.0188 94.123 87.8759 94.123C87.733 94.123 87.6172 94.2389 87.6172 94.3818C87.6172 94.5247 87.733 94.6405 87.8759 94.6405Z" fill="white"/>
<path d="M88.9623 96.1372C90.5933 94.7426 92.0122 93.1177 93.1743 91.3136C93.3566 91.0314 92.9078 90.7727 92.7294 91.051C91.5888 92.8166 90.197 94.4066 88.5977 95.7707C88.3429 95.9863 88.7114 96.3587 88.9623 96.1372Z" fill="white"/>
<path d="M58.04 95.0764C58.9179 97.8713 60.4184 100.431 62.4284 102.562C64.4231 104.693 66.852 106.37 69.5511 107.481C71.0732 108.105 72.6705 108.526 74.3021 108.734C74.6314 108.775 74.6275 108.257 74.3021 108.216C71.4885 107.837 68.7974 106.825 66.4308 105.257C64.0619 103.707 62.0528 101.668 60.539 99.2767C59.6853 97.9248 59.0131 96.4665 58.5398 94.9392C58.4418 94.6237 57.942 94.7589 58.04 95.0764Z" fill="white"/>
<path d="M65.0554 82.2892C66.618 80.4366 69.0276 79.5239 71.4254 79.8765C71.7507 79.9294 71.8899 79.4296 71.5626 79.3786C68.9844 78.9773 66.3826 79.9418 64.6889 81.9266C64.4772 82.1814 64.8417 82.5499 65.0554 82.2931V82.2892Z" fill="white"/>
<path d="M80.869 79.9756C81.9911 79.2447 83.4184 79.17 84.6107 79.7796C84.9047 79.9344 85.1673 79.4876 84.8714 79.3327C83.5172 78.6297 81.8904 78.7045 80.6064 79.5287C80.33 79.709 80.5888 80.1579 80.869 79.9756Z" fill="white"/>
<path d="M49.7509 70.5038C49.8938 70.5038 50.0096 70.3879 50.0096 70.245C50.0096 70.1022 49.8938 69.9863 49.7509 69.9863C49.608 69.9863 49.4922 70.1022 49.4922 70.245C49.4922 70.3879 49.608 70.5038 49.7509 70.5038Z" fill="#0189D5"/>
<path d="M52.4697 68.9628C52.6125 68.9628 52.7284 68.8469 52.7284 68.704C52.7284 68.5611 52.6125 68.4453 52.4697 68.4453C52.3268 68.4453 52.2109 68.5611 52.2109 68.704C52.2109 68.8469 52.3268 68.9628 52.4697 68.9628Z" fill="#0189D5"/>
<path d="M51.6533 71.8631C51.7961 71.8631 51.912 71.7473 51.912 71.6044C51.912 71.4615 51.7961 71.3457 51.6533 71.3457C51.5104 71.3457 51.3945 71.4615 51.3945 71.6044C51.3945 71.7473 51.5104 71.8631 51.6533 71.8631Z" fill="#0189D5"/>
<path d="M43.1613 76.8866C42.8392 77.1511 42.7084 77.5837 42.83 77.9823C42.9704 78.3901 43.3458 78.6707 43.7767 78.6898C43.9191 78.6888 44.0343 78.5736 44.0354 78.4311C44.0323 78.2895 43.9183 78.1755 43.7767 78.1724C43.7571 78.1705 43.7374 78.1705 43.7179 78.1724C43.7297 78.1626 43.7708 78.1724 43.7179 78.1724C43.6834 78.1647 43.6493 78.1549 43.616 78.143C43.565 78.1253 43.6571 78.1665 43.6062 78.143L43.5631 78.1195L43.5219 78.094C43.5219 78.094 43.4572 78.0528 43.5101 78.094C43.4848 78.0745 43.4612 78.0529 43.4396 78.0293L43.3984 77.9862C43.3671 77.9509 43.4141 78.0117 43.3984 77.9862C43.3783 77.9573 43.3599 77.9272 43.3435 77.896C43.3435 77.896 43.32 77.8392 43.3318 77.8745C43.3435 77.9097 43.3318 77.849 43.3318 77.8411C43.3269 77.8257 43.323 77.81 43.32 77.7941C43.2945 77.7255 43.32 77.7784 43.32 77.7941C43.3151 77.7623 43.3151 77.7299 43.32 77.6981C43.32 77.6785 43.32 77.6589 43.32 77.6393C43.32 77.5903 43.32 77.6726 43.32 77.6393C43.3266 77.6042 43.3352 77.5695 43.3455 77.5354C43.3498 77.5201 43.3551 77.505 43.3612 77.4903C43.3396 77.5315 43.371 77.4609 43.3612 77.4903C43.3784 77.4557 43.3981 77.4223 43.42 77.3903C43.3984 77.4099 43.4455 77.3492 43.42 77.3903L43.4513 77.3531C43.4789 77.3256 43.5084 77.3 43.5395 77.2767C43.6389 77.1747 43.6389 77.0121 43.5395 76.9101C43.4364 76.8138 43.2762 76.8138 43.173 76.9101L43.1613 76.8866Z" fill="#0189D5"/>
<path d="M46.1259 79.0272C46.2688 79.0272 46.3846 78.9114 46.3846 78.7685C46.3846 78.6256 46.2688 78.5098 46.1259 78.5098C45.983 78.5098 45.8672 78.6256 45.8672 78.7685C45.8672 78.9114 45.983 79.0272 46.1259 79.0272Z" fill="#0189D5"/>
<path d="M45.3993 81.287C45.5422 81.287 45.6581 81.1711 45.6581 81.0283C45.6581 80.8854 45.5422 80.7695 45.3993 80.7695C45.2565 80.7695 45.1406 80.8854 45.1406 81.0283C45.1406 81.1711 45.2565 81.287 45.3993 81.287Z" fill="#0189D5"/>
<path d="M55.0338 77.0187C55.065 77.1827 55.1402 77.3351 55.2513 77.4597C55.3616 77.5871 55.5036 77.6831 55.6629 77.738C55.7293 77.7546 55.7996 77.7447 55.8589 77.7106C55.9804 77.6376 56.0214 77.4809 55.951 77.3578C55.9151 77.301 55.8602 77.2587 55.7962 77.2382L55.759 77.2245L55.8217 77.25C55.7685 77.2278 55.7184 77.1988 55.6727 77.1638L55.7256 77.203C55.678 77.166 55.6351 77.1232 55.5982 77.0756L55.6374 77.1285C55.6014 77.0799 55.5712 77.0272 55.5473 76.9717L55.5728 77.0344C55.5518 76.9833 55.5367 76.9301 55.5277 76.8756C55.5094 76.8111 55.4674 76.7558 55.4101 76.7208C55.3502 76.6882 55.2803 76.6792 55.2141 76.6953C55.1487 76.7132 55.093 76.7561 55.0592 76.8149L55.0338 76.8756C55.02 76.9203 55.02 76.9681 55.0338 77.0128V77.0187Z" fill="#0189D5"/>
<path d="M59.2665 73.2225C59.4094 73.2225 59.5253 73.1067 59.5253 72.9638C59.5253 72.8209 59.4094 72.7051 59.2665 72.7051C59.1236 72.7051 59.0078 72.8209 59.0078 72.9638C59.0078 73.1067 59.1236 73.2225 59.2665 73.2225Z" fill="#0189D5"/>
<path d="M60.7197 73.3124C60.8625 73.3124 60.9784 73.1965 60.9784 73.0536C60.9784 72.9108 60.8625 72.7949 60.7197 72.7949C60.5768 72.7949 60.4609 72.9108 60.4609 73.0536C60.4609 73.1965 60.5768 73.3124 60.7197 73.3124Z" fill="#0189D5"/>
<path d="M62.079 79.1151C62.2219 79.1151 62.3378 78.9993 62.3378 78.8564C62.3378 78.7135 62.2219 78.5977 62.079 78.5977C61.9361 78.5977 61.8203 78.7135 61.8203 78.8564C61.8203 78.9993 61.9361 79.1151 62.079 79.1151Z" fill="#0189D5"/>
<path d="M41.0884 89.7546C41.0747 89.8033 41.0747 89.8548 41.0884 89.9035C41.1004 89.9503 41.1248 89.993 41.159 90.027C41.1766 90.0431 41.1956 90.0575 41.2158 90.0701L41.2785 90.0976C41.3319 90.1113 41.3879 90.1113 41.4412 90.0976L41.5079 90.0701C41.5281 90.0575 41.5471 90.0431 41.5647 90.027C41.5991 89.9928 41.6241 89.9503 41.6372 89.9035C41.65 89.8541 41.65 89.8021 41.6372 89.7526C41.6294 89.7197 41.6132 89.6893 41.5902 89.6644C41.5721 89.6364 41.5471 89.6135 41.5177 89.5978C41.4577 89.5654 41.3879 89.5563 41.3217 89.5723L41.2609 89.5978C41.2224 89.6196 41.1906 89.6515 41.1688 89.6899L41.1413 89.7526C41.1296 89.7976 41.1296 89.8449 41.1413 89.8898V89.8212V89.7526L41.1668 89.6899L41.206 89.637L41.257 89.5958L41.3197 89.5703H41.306L41.3746 89.5605H41.3589L41.4275 89.5703H41.4157L41.4785 89.5978L41.5314 89.6389L41.5725 89.6899L41.6 89.7507L41.6098 89.8193L41.6 89.8879C41.609 89.8545 41.609 89.8193 41.6 89.7859C41.5993 89.7518 41.5891 89.7186 41.5706 89.6899C41.5549 89.6605 41.532 89.6355 41.5039 89.6174C41.4791 89.5943 41.4487 89.5781 41.4157 89.5703L41.3471 89.5605C41.301 89.5604 41.2557 89.5726 41.2158 89.5958L41.1629 89.637C41.1319 89.669 41.1091 89.708 41.0963 89.7507L41.0884 89.7546Z" fill="#0189D5"/>
<path d="M47.6346 94.7698C47.3441 95.2331 47.2313 95.786 47.3171 96.3261C47.3552 96.4634 47.4971 96.544 47.6346 96.5064C47.7698 96.4656 47.8492 96.3259 47.8149 96.1889C47.8149 96.2496 47.8149 96.1556 47.8149 96.1438C47.813 96.1131 47.813 96.0823 47.8149 96.0517C47.812 95.9988 47.812 95.9458 47.8149 95.8929C47.8149 95.84 47.8149 95.7851 47.8286 95.7322C47.8286 95.7949 47.8286 95.6989 47.8286 95.6891C47.8286 95.6793 47.8384 95.6362 47.8443 95.6107C47.8683 95.5023 47.9011 95.3962 47.9423 95.2932C47.9207 95.348 47.958 95.2598 47.9639 95.252L47.9933 95.1893C48.0227 95.1364 48.0521 95.0834 48.0854 95.0325C48.157 94.9089 48.1159 94.7508 47.9933 94.6777C47.8693 94.6094 47.7135 94.6498 47.6385 94.7698H47.6346Z" fill="#0189D5"/>
<path d="M48.3928 101.153L48.483 101.243C48.5055 101.267 48.5339 101.286 48.5653 101.296C48.6272 101.326 48.6995 101.326 48.7613 101.296C48.7928 101.286 48.8211 101.267 48.8436 101.243L48.8848 101.19C48.9081 101.151 48.9203 101.106 48.9201 101.061L48.9103 100.992C48.8991 100.948 48.8761 100.908 48.8436 100.877L48.7535 100.786C48.731 100.762 48.7026 100.744 48.6712 100.734C48.6093 100.703 48.537 100.703 48.4752 100.734C48.4433 100.743 48.4147 100.761 48.3928 100.786L48.3517 100.839C48.3284 100.879 48.3162 100.923 48.3164 100.969V101.039C48.3281 101.082 48.3511 101.122 48.383 101.153H48.3928Z" fill="#0189D5"/>
<path d="M49.1181 114.732C49.261 114.732 49.3768 114.616 49.3768 114.474C49.3768 114.331 49.261 114.215 49.1181 114.215C48.9752 114.215 48.8594 114.331 48.8594 114.474C48.8594 114.616 48.9752 114.732 49.1181 114.732Z" fill="#0189D5"/>
<path d="M42.9305 111.548C41.9218 112.506 41.7738 114.061 42.5836 115.192C42.6579 115.312 42.813 115.352 42.9364 115.284C43.0595 115.212 43.1016 115.055 43.0304 114.931C42.34 114.003 42.4546 112.705 43.297 111.913C43.544 111.689 43.1774 111.325 42.9305 111.548Z" fill="#0189D5"/>
<path d="M44.5868 118.816C44.7297 118.816 44.8456 118.7 44.8456 118.558C44.8456 118.415 44.7297 118.299 44.5868 118.299C44.444 118.299 44.3281 118.415 44.3281 118.558C44.3281 118.7 44.444 118.816 44.5868 118.816Z" fill="#0189D5"/>
<path d="M50.8408 121.348C50.9836 121.348 51.0995 121.232 51.0995 121.089C51.0995 120.946 50.9836 120.83 50.8408 120.83C50.6979 120.83 50.582 120.946 50.582 121.089C50.582 121.232 50.6979 121.348 50.8408 121.348Z" fill="#0189D5"/>
<path d="M56.7627 116.056L56.4981 116.603C56.4656 116.663 56.4565 116.733 56.4727 116.799C56.4904 116.864 56.5326 116.919 56.5903 116.954C56.6498 116.987 56.7201 116.996 56.7863 116.979C56.8511 116.962 56.9066 116.919 56.9411 116.862L57.2057 116.313C57.2379 116.253 57.2469 116.183 57.2312 116.117C57.2127 116.052 57.1699 115.996 57.1116 115.962C57.0522 115.928 56.9817 115.919 56.9156 115.937C56.8502 115.953 56.7943 115.996 56.7608 116.054L56.7627 116.056Z" fill="#0189D5"/>
<path d="M58.6454 120.623C58.7883 120.623 58.9042 120.507 58.9042 120.364C58.9042 120.221 58.7883 120.105 58.6454 120.105C58.5026 120.105 58.3867 120.221 58.3867 120.364C58.3867 120.507 58.5026 120.623 58.6454 120.623Z" fill="#0189D5"/>
<path d="M65.0673 115.367C65.2102 115.367 65.326 115.251 65.326 115.108C65.326 114.965 65.2102 114.85 65.0673 114.85C64.9244 114.85 64.8086 114.965 64.8086 115.108C64.8086 115.251 64.9244 115.367 65.0673 115.367Z" fill="#0189D5"/>
<path d="M58.0372 106.721L58.2195 106.631C58.2486 106.614 58.2734 106.591 58.292 106.564C58.3139 106.539 58.3294 106.508 58.3371 106.476C58.3465 106.442 58.3465 106.406 58.3371 106.372C58.3352 106.338 58.3244 106.305 58.3058 106.276L58.2646 106.225C58.234 106.192 58.1945 106.169 58.1509 106.158H58.0823C58.0368 106.158 57.992 106.17 57.953 106.193L57.7707 106.284C57.7412 106.299 57.7163 106.322 57.6982 106.35C57.6751 106.375 57.6589 106.406 57.6511 106.438C57.6423 106.473 57.6423 106.508 57.6511 106.542C57.653 106.577 57.6638 106.61 57.6825 106.638L57.7217 106.689C57.7534 106.722 57.7934 106.745 57.8373 106.756L57.9059 106.766C57.9515 106.766 57.9962 106.754 58.0353 106.731L58.0372 106.721Z" fill="#0189D5"/>
<path d="M83.3759 106.756C83.5188 106.756 83.6346 106.64 83.6346 106.497C83.6346 106.354 83.5188 106.238 83.3759 106.238C83.233 106.238 83.1172 106.354 83.1172 106.497C83.1172 106.64 83.233 106.756 83.3759 106.756Z" fill="#0189D5"/>
<path d="M83.7314 119.445C83.8743 119.445 83.9901 119.329 83.9901 119.186C83.9901 119.044 83.8743 118.928 83.7314 118.928C83.5885 118.928 83.4727 119.044 83.4727 119.186C83.4727 119.329 83.5885 119.445 83.7314 119.445Z" fill="#0189D5"/>
<path d="M76.3056 119.625C76.4485 119.625 76.5643 119.509 76.5643 119.366C76.5643 119.223 76.4485 119.107 76.3056 119.107C76.1627 119.107 76.0469 119.223 76.0469 119.366C76.0469 119.509 76.1627 119.625 76.3056 119.625Z" fill="#0189D5"/>
<path d="M81.4736 115.728C81.6165 115.728 81.7323 115.613 81.7323 115.47C81.7323 115.327 81.6165 115.211 81.4736 115.211C81.3307 115.211 81.2148 115.327 81.2148 115.47C81.2148 115.613 81.3307 115.728 81.4736 115.728Z" fill="#0189D5"/>
<path d="M79.4775 119.082C79.6204 119.082 79.7362 118.966 79.7362 118.823C79.7362 118.68 79.6204 118.564 79.4775 118.564C79.3346 118.564 79.2188 118.68 79.2188 118.823C79.2188 118.966 79.3346 119.082 79.4775 119.082Z" fill="#0189D5"/>
<path d="M81.29 121.984C81.4329 121.984 81.5487 121.868 81.5487 121.726C81.5487 121.583 81.4329 121.467 81.29 121.467C81.1471 121.467 81.0312 121.583 81.0312 121.726C81.0312 121.868 81.1471 121.984 81.29 121.984Z" fill="#0189D5"/>
<path d="M76.3993 70.9569C76.5422 70.9569 76.6581 70.8411 76.6581 70.6982C76.6581 70.5553 76.5422 70.4395 76.3993 70.4395C76.2565 70.4395 76.1406 70.5553 76.1406 70.6982C76.1406 70.8411 76.2565 70.9569 76.3993 70.9569Z" fill="#0189D5"/>
<path d="M75.1268 73.0409C75.2605 73.0292 75.3631 72.9173 75.3631 72.7831C75.3631 72.649 75.2605 72.5371 75.1268 72.5254C74.9932 72.5371 74.8906 72.649 74.8906 72.7831C74.8906 72.9173 74.9932 73.0292 75.1268 73.0409Z" fill="#0189D5"/>
<path d="M79.2079 72.5878C79.3508 72.5878 79.4667 72.4719 79.4667 72.329C79.4667 72.1861 79.3508 72.0703 79.2079 72.0703C79.0651 72.0703 78.9492 72.1861 78.9492 72.329C78.9492 72.4719 79.0651 72.5878 79.2079 72.5878Z" fill="#0189D5"/>
<path d="M72.3173 65.6991C72.4602 65.6991 72.576 65.5832 72.576 65.4404C72.576 65.2975 72.4602 65.1816 72.3173 65.1816C72.1744 65.1816 72.0586 65.2975 72.0586 65.4404C72.0586 65.5832 72.1744 65.6991 72.3173 65.6991Z" fill="#0189D5"/>
<path d="M57.7275 62.9823C57.8704 62.9823 57.9862 62.8665 57.9862 62.7236C57.9862 62.5807 57.8704 62.4648 57.7275 62.4648C57.5846 62.4648 57.4688 62.5807 57.4688 62.7236C57.4688 62.8665 57.5846 62.9823 57.7275 62.9823Z" fill="#0189D5"/>
<path d="M41.0463 107.855C40.9197 108.041 40.8764 108.272 40.9268 108.492C40.9711 108.71 41.1028 108.902 41.2913 109.021C41.4148 109.092 41.5725 109.05 41.6441 108.927C41.7133 108.804 41.6726 108.648 41.552 108.574L41.5089 108.545L41.5618 108.584C41.5266 108.556 41.495 108.525 41.4677 108.49L41.5089 108.541C41.4799 108.502 41.4555 108.46 41.4364 108.415L41.4618 108.478C41.4413 108.426 41.4274 108.372 41.4207 108.317V108.386C41.4148 108.334 41.4148 108.282 41.4207 108.231V108.3C41.4267 108.252 41.4386 108.205 41.456 108.16L41.4305 108.223C41.4472 108.185 41.4675 108.149 41.4912 108.115C41.5264 108.056 41.5363 107.986 41.5187 107.919C41.499 107.855 41.4565 107.8 41.3991 107.765C41.3396 107.731 41.2693 107.722 41.2031 107.739C41.1402 107.761 41.0863 107.803 41.0502 107.859L41.0463 107.855Z" fill="#0189D5"/>
<path d="M37.0634 102.269C37.2063 102.269 37.3221 102.154 37.3221 102.011C37.3221 101.868 37.2063 101.752 37.0634 101.752C36.9205 101.752 36.8047 101.868 36.8047 102.011C36.8047 102.154 36.9205 102.269 37.0634 102.269Z" fill="#0189D5"/>
<path d="M70.2392 60.1542C70.3821 60.1542 70.4979 60.0383 70.4979 59.8954C70.4979 59.7526 70.3821 59.6367 70.2392 59.6367C70.0963 59.6367 69.9805 59.7526 69.9805 59.8954C69.9805 60.0383 70.0963 60.1542 70.2392 60.1542Z" fill="white"/>
<path d="M72.259 59.4279H72.402C72.4369 59.429 72.4714 59.4209 72.502 59.4043C72.5345 59.3949 72.5636 59.3765 72.5863 59.3514C72.6106 59.3289 72.6288 59.3006 72.6392 59.2691C72.6551 59.2383 72.6625 59.2038 72.6608 59.1691V59.1005C72.648 59.0572 72.6252 59.0176 72.5941 58.9849L72.5412 58.9457C72.5013 58.9224 72.456 58.9103 72.4099 58.9104H72.2668C72.2322 58.9086 72.1977 58.9161 72.1668 58.932C72.1349 58.9427 72.106 58.9608 72.0826 58.9849C72.0592 59.0089 72.0411 59.0377 72.0296 59.0692C72.0137 59.1 72.0063 59.1345 72.0081 59.1691L72.0179 59.2377C72.0291 59.2806 72.0514 59.3199 72.0826 59.3514L72.1355 59.3926C72.1753 59.4158 72.2207 59.428 72.2668 59.4279H72.259Z" fill="white"/>
<path d="M66.7743 63.7635C66.9172 63.7635 67.0331 63.6477 67.0331 63.5048C67.0331 63.3619 66.9172 63.2461 66.7743 63.2461C66.6315 63.2461 66.5156 63.3619 66.5156 63.5048C66.5156 63.6477 66.6315 63.7635 66.7743 63.7635Z" fill="white"/>
<path d="M76.1422 60.6289C76.7791 61.2695 77.3594 61.964 77.8768 62.7045C78.0983 63.0259 78.3433 63.3983 78.3413 63.8041C78.3632 64.1327 78.1485 64.4306 77.8297 64.5136L78.1218 64.6312C77.8689 64.2568 78.3295 63.8805 78.6921 64.0843C79.1841 64.3607 78.9901 64.9742 78.6333 65.2603C78.5784 65.3178 78.5524 65.397 78.5627 65.4759C78.573 65.5547 78.6184 65.6246 78.6863 65.6661C79.605 66.3443 80.1602 67.4077 80.1915 68.5492C80.1915 68.8824 80.7168 68.8824 80.707 68.5492C80.6721 67.2239 80.0194 65.9912 78.943 65.2172L78.9959 65.6229C79.6819 65.0545 79.6898 63.8805 78.7705 63.5453C77.9865 63.2611 77.1869 64.1627 77.671 64.8821C77.7327 64.9802 77.8505 65.0276 77.963 64.9997C78.3696 64.9033 78.69 64.5905 78.796 64.1863C78.9059 63.7276 78.8275 63.2441 78.5785 62.8437C78.3125 62.3901 78.0075 61.9605 77.6671 61.5599C77.3031 61.1026 76.9144 60.6655 76.5028 60.2506C76.2696 60.0134 75.9031 60.3799 76.1383 60.6171L76.1422 60.6289Z" fill="white"/>
<path d="M81.497 70.6913C81.6399 70.6913 81.7557 70.5754 81.7557 70.4325C81.7557 70.2897 81.6399 70.1738 81.497 70.1738C81.3541 70.1738 81.2383 70.2897 81.2383 70.4325C81.2383 70.5754 81.3541 70.6913 81.497 70.6913Z" fill="white"/>
<path d="M86.9853 102.156C87.1282 102.156 87.244 102.04 87.244 101.897C87.244 101.755 87.1282 101.639 86.9853 101.639C86.8424 101.639 86.7266 101.755 86.7266 101.897C86.7266 102.04 86.8424 102.156 86.9853 102.156Z" fill="white"/>
<path d="M86.8378 104.326C86.9714 104.314 87.074 104.202 87.074 104.068C87.074 103.934 86.9714 103.822 86.8378 103.811C86.7041 103.822 86.6016 103.934 86.6016 104.068C86.6016 104.202 86.7041 104.314 86.8378 104.326Z" fill="white"/>
<path d="M87.8486 111.832C87.9915 111.832 88.1073 111.716 88.1073 111.573C88.1073 111.43 87.9915 111.314 87.8486 111.314C87.7057 111.314 87.5898 111.43 87.5898 111.573C87.5898 111.716 87.7057 111.832 87.8486 111.832Z" fill="white"/>
<path d="M56.5993 95.5149C57.7224 95.6774 58.823 95.1014 59.3296 94.0861C59.3987 93.9601 59.3564 93.802 59.2336 93.7274C59.1094 93.6572 58.9519 93.699 58.8788 93.8215C58.4913 94.6351 57.63 95.113 56.7346 95.0112C56.5974 94.9789 56.4583 95.0573 56.4151 95.1915C56.3785 95.3293 56.4586 95.4711 56.5954 95.511L56.5993 95.5149Z" fill="white"/>
<path d="M113 107.82L113.637 115.903C113.678 116.428 113.649 117.067 114 117.5C114.27 117.836 114.842 118.024 115.193 117.696C115.329 117.561 115.401 117.374 115.391 117.183C115.382 116.991 115.292 116.813 115.144 116.691C114.699 116.373 114.335 117.005 114.164 117.344C113.879 117.851 113.783 118.444 113.894 119.015C114.013 119.472 114.445 119.995 114.966 119.782L114.639 119.533C114.479 120.955 114.742 122.392 115.395 123.665C115.546 123.963 115.983 123.7 115.842 123.404C115.236 122.21 114.997 120.863 115.156 119.533C115.156 119.452 115.118 119.376 115.054 119.328C114.99 119.279 114.906 119.263 114.829 119.284C114.394 119.458 114.35 118.608 114.376 118.367C114.438 117.861 114.671 117.391 115.036 117.036L114.854 117.11C114.899 117.11 114.876 117.275 114.854 117.306C114.774 117.426 114.568 117.338 114.482 117.271C114.182 117.046 114.201 116.546 114.174 116.209L113.956 113.433L113.527 107.82C113.502 107.491 112.984 107.489 113.01 107.82H113Z" fill="white"/>
<path d="M116.575 126.412C116.718 126.412 116.834 126.296 116.834 126.153C116.834 126.01 116.718 125.895 116.575 125.895C116.432 125.895 116.316 126.01 116.316 126.153C116.316 126.296 116.432 126.412 116.575 126.412Z" fill="white"/>
<path d="M118.051 125.722V126.01C118.049 126.045 118.057 126.079 118.073 126.11C118.083 126.141 118.101 126.17 118.126 126.192C118.149 126.217 118.178 126.236 118.21 126.247C118.241 126.263 118.275 126.27 118.31 126.269C118.378 126.269 118.444 126.241 118.492 126.192C118.54 126.144 118.568 126.078 118.568 126.01V125.722C118.57 125.687 118.562 125.653 118.545 125.622C118.535 125.59 118.517 125.561 118.492 125.538C118.469 125.514 118.441 125.496 118.41 125.485C118.379 125.469 118.344 125.461 118.31 125.463C118.241 125.464 118.175 125.49 118.126 125.538C118.079 125.588 118.052 125.653 118.051 125.722Z" fill="white"/>
<path d="M117.587 129.596C117.73 129.596 117.846 129.48 117.846 129.337C117.846 129.194 117.73 129.078 117.587 129.078C117.444 129.078 117.328 129.194 117.328 129.337C117.328 129.48 117.444 129.596 117.587 129.596Z" fill="white"/>
<path d="M118.884 131.463C119.027 131.463 119.142 131.347 119.142 131.204C119.142 131.061 119.027 130.945 118.884 130.945C118.741 130.945 118.625 131.061 118.625 131.204C118.625 131.347 118.741 131.463 118.884 131.463Z" fill="white"/>
<path d="M119.173 94.8006C119.316 94.8006 119.432 94.6848 119.432 94.5419C119.432 94.399 119.316 94.2832 119.173 94.2832C119.03 94.2832 118.914 94.399 118.914 94.5419C118.914 94.6848 119.03 94.8006 119.173 94.8006Z" fill="white"/>
<path d="M161.499 90.3525C160.537 92.4301 160.098 94.686 159.913 96.9557C159.75 99.3887 159.73 101.829 159.853 104.265C160.049 109.337 160.533 114.396 160.948 119.453C161.063 120.879 161.179 122.306 161.297 123.733C161.393 124.884 161.493 126.099 162.175 127.065C162.371 127.336 162.814 127.079 162.622 126.805C162.018 125.942 161.911 124.882 161.826 123.865L161.52 120.129C161.317 117.646 161.113 115.163 160.911 112.681C160.519 107.796 160.111 102.859 160.364 97.9553C160.493 95.4426 160.88 92.9024 161.946 90.6014C162.085 90.3015 161.64 90.0389 161.499 90.3407V90.3525Z" fill="white"/>
<path d="M163.817 131.244L163.96 131.099C164.036 131.026 164.058 130.913 164.015 130.817C164.004 130.786 163.985 130.757 163.96 130.735L163.909 130.693C163.869 130.67 163.824 130.658 163.778 130.658L163.709 130.668C163.666 130.679 163.627 130.702 163.596 130.735L163.451 130.878C163.426 130.901 163.408 130.93 163.398 130.962C163.367 131.024 163.367 131.096 163.398 131.158C163.408 131.189 163.426 131.218 163.451 131.24L163.503 131.281C163.543 131.305 163.587 131.317 163.633 131.317H163.701C163.745 131.305 163.785 131.282 163.817 131.25V131.244Z" fill="white"/>
<path d="M140.769 111.512C141.459 111.676 142.155 111.104 142.611 110.647C143.085 110.173 143.443 109.596 143.66 108.962C144.107 107.583 143.837 106.071 142.94 104.932C142.744 104.669 142.372 105.038 142.574 105.299C143.69 106.737 143.616 108.769 142.398 110.122C142.218 110.325 142.016 110.508 141.796 110.667C141.551 110.843 141.224 111.088 140.906 111.012C140.588 110.936 140.445 111.433 140.769 111.512Z" fill="white"/>
<path d="M141.751 104.703C141.894 104.703 142.01 104.587 142.01 104.444C142.01 104.301 141.894 104.186 141.751 104.186C141.608 104.186 141.492 104.301 141.492 104.444C141.492 104.587 141.608 104.703 141.751 104.703Z" fill="white"/>
<path d="M140.7 113.09C140.851 113.979 140.935 114.878 140.951 115.779C140.951 116.171 140.951 116.59 140.696 116.908C140.447 117.171 140.147 117.38 139.814 117.521C139.518 117.674 139.779 118.121 140.075 117.968C140.443 117.802 140.776 117.566 141.055 117.272C141.321 116.921 141.46 116.489 141.447 116.047C141.49 115.011 141.331 113.974 141.184 112.951C141.137 112.623 140.637 112.755 140.684 113.09H140.7Z" fill="white"/>
<path d="M130.505 59.0603C129.231 59.8247 127.916 60.6165 126.977 61.7886C126.094 62.889 125.549 64.2222 125.409 65.6263C125.409 65.7445 125.49 65.8472 125.605 65.8752C125.88 65.9656 126.181 65.8643 126.346 65.6263C126.511 65.3793 126.395 65.1383 126.15 64.9991C125.562 64.6659 125.043 65.1735 124.766 65.6439C124.055 66.8755 123.725 68.2899 123.816 69.709C123.835 70.0402 124.353 70.0422 124.333 69.709C124.275 68.8347 124.387 67.9575 124.662 67.1257C124.799 66.7168 124.977 66.3228 125.193 65.9497C125.291 65.7753 125.723 65.1402 125.954 65.5224L125.928 65.3264C125.895 65.4107 125.811 65.4107 125.732 65.3872L125.928 65.6381C126.06 64.311 126.587 63.054 127.442 62.0297C128.353 60.9556 129.572 60.2245 130.774 59.5072C130.894 59.4339 130.934 59.2776 130.863 59.1557C130.792 59.0339 130.636 58.9914 130.513 59.0603H130.505Z" fill="#1FD7F3"/>
<path d="M123.649 71.992C123.792 71.992 123.908 71.8762 123.908 71.7333C123.908 71.5904 123.792 71.4746 123.649 71.4746C123.506 71.4746 123.391 71.5904 123.391 71.7333C123.391 71.8762 123.506 71.992 123.649 71.992Z" fill="#1FD7F3"/>
<path d="M123.356 75.0233C123.499 75.0233 123.615 74.9075 123.615 74.7646C123.615 74.6217 123.499 74.5059 123.356 74.5059C123.213 74.5059 123.098 74.6217 123.098 74.7646C123.098 74.9075 123.213 75.0233 123.356 75.0233Z" fill="#1FD7F3"/>
<path d="M122.634 77.3319C122.777 77.3319 122.892 77.2161 122.892 77.0732C122.892 76.9303 122.777 76.8145 122.634 76.8145C122.491 76.8145 122.375 76.9303 122.375 77.0732C122.375 77.2161 122.491 77.3319 122.634 77.3319Z" fill="#1FD7F3"/>
<path d="M125.121 74.3234V74.4685C125.119 74.5025 125.127 74.5364 125.143 74.5665C125.165 74.6307 125.216 74.6812 125.28 74.7037C125.31 74.7198 125.344 74.7273 125.378 74.7252H125.449C125.491 74.712 125.53 74.6892 125.562 74.6586L125.602 74.6057C125.625 74.5666 125.637 74.5218 125.637 74.4763V74.3234C125.639 74.2888 125.631 74.2543 125.615 74.2235C125.605 74.192 125.587 74.1637 125.562 74.1412C125.54 74.1158 125.511 74.0969 125.478 74.0863C125.447 74.0704 125.413 74.0629 125.378 74.0647H125.31C125.266 74.0764 125.227 74.0994 125.196 74.1314L125.157 74.1823C125.133 74.2222 125.121 74.2675 125.121 74.3136V74.3234Z" fill="#1FD7F3"/>
<path d="M124.657 78.1991C124.8 78.1991 124.916 78.0832 124.916 77.9404C124.916 77.7975 124.8 77.6816 124.657 77.6816C124.514 77.6816 124.398 77.7975 124.398 77.9404C124.398 78.0832 124.514 78.1991 124.657 78.1991Z" fill="#1FD7F3"/>
<path d="M155.934 64.9155C156.543 65.7489 157.014 66.6756 157.327 67.6595C157.488 68.1358 157.629 68.6199 157.76 69.1041C157.839 69.3513 157.904 69.6025 157.956 69.8567C157.971 69.9344 157.971 70.0142 157.956 70.0919C157.944 70.1211 157.935 70.1512 157.929 70.1821C157.894 70.2252 157.896 70.235 157.929 70.2134C157.962 70.1919 157.964 70.1997 157.929 70.1899L158.109 70.3702C158.066 70.1716 158.118 69.9641 158.251 69.8099C158.383 69.6557 158.581 69.5729 158.783 69.5862L158.534 69.3902C158.715 69.89 158.915 70.4231 158.87 70.9582C158.824 71.232 158.734 71.4966 158.605 71.7422C158.503 71.9797 158.455 72.2367 158.464 72.4949C158.504 73.0744 158.575 73.6514 158.676 74.2236L158.917 76.0581C158.96 76.3835 159.477 76.3874 159.434 76.0581L159.191 74.2236C159.115 73.6356 158.972 73.0084 158.981 72.4086C159.009 72.1336 159.091 71.8669 159.224 71.6246C159.326 71.3881 159.382 71.1349 159.391 70.8779C159.376 70.3177 159.254 69.7656 159.032 69.2511C159 69.1389 158.9 69.0599 158.783 69.0551C158.222 69.0356 157.725 69.4157 157.598 69.9625C157.543 70.1919 157.527 70.5799 157.794 70.6799C158.011 70.7575 158.253 70.6619 158.358 70.4565C158.474 70.2362 158.509 69.9826 158.458 69.7391C158.393 69.3961 158.28 69.0531 158.186 68.716C158.004 68.0429 157.784 67.3807 157.527 66.7325C157.236 65.9914 156.847 65.2921 156.373 64.6529C156.177 64.3922 155.724 64.6529 155.926 64.9136L155.934 64.9155Z" fill="#1FD7F3"/>
<path d="M159.583 77.91C159.726 77.91 159.842 77.7942 159.842 77.6513C159.842 77.5084 159.726 77.3926 159.583 77.3926C159.44 77.3926 159.324 77.5084 159.324 77.6513C159.324 77.7942 159.44 77.91 159.583 77.91Z" fill="#1FD7F3"/>
<path d="M159.88 80.6522C160.023 80.6522 160.139 80.5364 160.139 80.3935C160.139 80.2506 160.023 80.1348 159.88 80.1348C159.737 80.1348 159.621 80.2506 159.621 80.3935C159.621 80.5364 159.737 80.6522 159.88 80.6522Z" fill="#1FD7F3"/>
<path d="M55.2722 150.5C55.8924 151.257 56.8018 151.719 57.779 151.774C57.9215 151.773 58.0367 151.657 58.0378 151.515C58.0347 151.373 57.9206 151.259 57.779 151.256C56.9392 151.2 56.1621 150.792 55.6387 150.133C55.5367 150.034 55.3742 150.034 55.2722 150.133C55.1749 150.236 55.1749 150.397 55.2722 150.5Z" fill="#1FD7F3"/>
<path d="M54.7485 152.01C54.9445 152.789 55.5689 153.388 56.3557 153.55C56.4468 153.582 56.5478 153.56 56.6178 153.494C56.6878 153.428 56.7153 153.328 56.689 153.235C56.6628 153.143 56.5872 153.072 56.4929 153.053C56.4091 153.037 56.3266 153.015 56.2459 152.988L56.1891 152.966L56.1597 152.955C56.1871 152.966 56.193 152.97 56.1754 152.955L56.0656 152.902C55.9899 152.862 55.9172 152.817 55.8481 152.766C55.8363 152.766 55.7873 152.721 55.8343 152.766L55.7873 152.727C55.7552 152.701 55.7245 152.674 55.6952 152.645C55.6358 152.589 55.5808 152.529 55.5305 152.465C55.4874 152.412 55.5599 152.508 55.5207 152.453L55.4855 152.404L55.4188 152.3L55.36 152.192L55.3345 152.137V152.124C55.301 152.042 55.2741 151.957 55.2542 151.871C55.2151 151.734 55.0739 151.654 54.9367 151.69C54.7997 151.73 54.7191 151.872 54.7544 152.01H54.7485Z" fill="#1FD7F3"/>
<path d="M55.8486 155.09C55.9915 155.09 56.1073 154.974 56.1073 154.831C56.1073 154.688 55.9915 154.572 55.8486 154.572C55.7057 154.572 55.5898 154.688 55.5898 154.831C55.5898 154.974 55.7057 155.09 55.8486 155.09Z" fill="#1FD7F3"/>
<path d="M77.277 146.336C76.5439 146.659 75.8423 147.269 75.7697 148.113C75.7364 148.519 75.905 148.99 76.2989 149.162C76.4802 149.246 76.688 149.252 76.8735 149.178C77.059 149.103 77.2057 148.956 77.2789 148.77C77.3166 148.632 77.2362 148.49 77.0986 148.451C76.8241 148.408 76.5465 148.507 76.3612 148.714C76.1759 148.921 76.1082 149.208 76.1813 149.476C76.2833 149.791 76.7811 149.656 76.6811 149.338C76.6302 149.18 76.7674 148.921 76.9614 148.946L76.7811 148.627C76.7223 148.776 76.4695 148.68 76.3891 148.584C76.2591 148.362 76.2423 148.092 76.344 147.857C76.5224 147.333 77.0535 146.984 77.5357 146.773C77.6562 146.7 77.6958 146.543 77.6248 146.421C77.5537 146.3 77.3981 146.257 77.275 146.326L77.277 146.336Z" fill="#1FD7F3"/>
<path d="M75.9985 151.591L76.8628 151.199C76.922 151.166 76.9651 151.11 76.9824 151.044C77.0002 150.978 76.991 150.908 76.9569 150.848C76.9226 150.79 76.8672 150.747 76.8021 150.729C76.7357 150.715 76.6668 150.724 76.6061 150.754L75.7398 151.146C75.6816 151.18 75.6393 151.236 75.6222 151.301C75.6044 151.367 75.6135 151.438 75.6476 151.497C75.6819 151.555 75.7374 151.598 75.8025 151.617C75.8688 151.63 75.9377 151.621 75.9985 151.591Z" fill="#1FD7F3"/>
<path d="M76.4462 153.455C76.5891 153.455 76.7049 153.339 76.7049 153.196C76.7049 153.053 76.5891 152.938 76.4462 152.938C76.3033 152.938 76.1875 153.053 76.1875 153.196C76.1875 153.339 76.3033 153.455 76.4462 153.455Z" fill="#1FD7F3"/>
<path d="M40.3123 143.815C38.5157 145.632 37.4123 148.021 37.1939 150.567L37.5213 150.318C37.1293 150.173 36.0728 149.84 35.9885 150.546C35.9815 150.807 36.1226 151.05 36.3531 151.173C36.457 151.236 36.6197 151.269 36.7039 151.369C36.7882 151.469 36.751 151.677 36.7275 151.822C36.6174 152.515 36.6062 153.22 36.6941 153.917C36.7529 154.376 36.798 155.434 37.4781 155.332C37.8055 155.283 37.6741 154.785 37.3409 154.834C37.4507 154.817 37.3586 154.658 37.3409 154.575C37.3096 154.44 37.2802 154.305 37.2567 154.168C37.212 153.918 37.1819 153.665 37.1665 153.411C37.1374 152.882 37.1663 152.352 37.2527 151.83C37.3174 151.414 37.2527 151.069 36.8607 150.85C36.7789 150.814 36.6991 150.774 36.6216 150.73C36.6079 150.72 36.5119 150.652 36.5197 150.632H36.5903C36.8157 150.587 37.1783 150.742 37.388 150.818C37.4657 150.839 37.5485 150.822 37.6124 150.774C37.6764 150.725 37.7143 150.65 37.7153 150.569C37.9291 148.157 38.9787 145.896 40.6827 144.176C40.9179 143.939 40.5514 143.572 40.3182 143.809L40.3123 143.815Z" fill="#1FD7F3"/>
<path d="M37.2783 155.957C37.4211 155.957 37.537 155.841 37.537 155.698C37.537 155.555 37.4211 155.439 37.2783 155.439C37.1354 155.439 37.0195 155.555 37.0195 155.698C37.0195 155.841 37.1354 155.957 37.2783 155.957Z" fill="#1FD7F3"/>
<path d="M67.9294 161.445C68.3944 160.935 68.9841 160.554 69.6405 160.341C70.3912 160.063 71.1713 159.855 71.9415 159.634C72.7687 159.395 73.6017 159.165 74.4347 158.948C74.8521 158.838 75.2677 158.72 75.6871 158.624C75.8557 158.587 76.2751 158.505 76.3221 158.738C76.355 158.849 76.4566 158.925 76.572 158.925C76.6874 158.925 76.7891 158.849 76.8219 158.738C76.9807 158.07 77.7647 157.87 78.3527 157.758C79.3013 157.584 80.2676 157.484 81.2202 157.35C81.5495 157.303 81.4162 156.805 81.083 156.851L79.4072 157.086C78.925 157.152 78.4272 157.199 77.9587 157.311C77.2571 157.476 76.5044 157.832 76.3221 158.597H76.8219C76.6455 157.813 75.6087 158.107 75.0854 158.24C74.1119 158.488 73.1411 158.75 72.1728 159.024C71.2928 159.273 70.4088 159.51 69.5405 159.824C68.7997 160.094 68.0803 160.461 67.5649 161.072C67.3512 161.325 67.7158 161.694 67.9294 161.439V161.445Z" fill="#1FD7F3"/>
<path d="M7.78544 62.2857C6.88384 65.6843 6.33112 69.2398 6.8368 72.7482C7.24644 75.5902 8.64 78.6713 11.68 79.4259C12.9383 79.7375 14.3514 79.5474 15.3334 78.6517C16.2073 77.8503 16.6427 76.6776 16.5035 75.5C16.431 74.9105 16.1625 74.3624 15.7411 73.9438C15.2477 73.4292 14.4327 73.4057 13.9104 73.8909C13.3558 74.3515 13.0441 75.0904 12.8305 75.7587C12.6039 76.4841 12.4961 77.2412 12.511 78.001C12.5463 81.2938 14.4984 84.0535 16.527 86.478C16.7884 86.7851 17.0497 87.0915 17.311 87.3972C17.5286 87.652 17.899 87.2835 17.6776 87.0327C15.7999 84.8316 13.8124 82.4972 13.2068 79.5847C12.9226 78.2127 12.9559 76.7485 13.4969 75.4451C13.7125 74.9218 14.0849 74.1339 14.7219 74.0457C15.3099 73.9634 15.7548 74.6886 15.8979 75.1727C16.2095 76.1527 15.8665 77.2836 15.1923 78.0382C14.3946 78.9281 13.1578 79.1946 12.0132 78.9653C9.20448 78.4028 7.85404 75.6568 7.39736 73.0755C6.84072 69.9297 7.24252 66.6761 7.9736 63.595C8.06768 63.203 8.1696 62.811 8.26956 62.419C8.29741 62.2853 8.21663 62.153 8.08502 62.1168C7.95341 62.0805 7.81626 62.1527 7.77172 62.2818L7.78544 62.2857Z" fill="#1FD7F3"/>
<path d="M28.2899 46.0284L33.7779 56.4164C33.9347 56.7104 34.3816 56.4497 34.2248 56.1557L28.7368 45.7677C28.582 45.4737 28.1351 45.7344 28.2899 46.0284Z" fill="#1FD7F3"/>
<path d="M49.3666 37.8684L51.0973 45.6633C51.1678 45.9887 51.6676 45.8495 51.5951 45.5261L49.8644 37.7312C49.7919 37.4058 49.2941 37.5352 49.3666 37.8684Z" fill="#1FD7F3"/>
<path d="M74.9872 31.4471C76.8629 31.4687 78.2016 33.1935 78.5152 34.9144C78.9072 37.0174 77.7077 39.0852 76.3435 40.5846C75.9799 40.9839 75.5945 41.3627 75.1891 41.7195C74.7873 42.0723 74.3149 42.4329 73.7661 42.5035C73.3202 42.5633 72.8831 42.344 72.6646 41.9508C72.4509 41.4764 72.8939 41.0688 73.2526 40.8434C75.0754 39.7144 77.7018 39.832 79.0679 41.6117C79.7304 42.4741 79.9969 43.6187 79.5912 44.6516C79.1992 45.6316 78.2663 46.4274 77.1883 46.4705L77.2569 46.9782C78.3309 46.5685 79.162 47.9856 78.9699 48.9127C78.7112 50.1749 77.4019 50.9452 76.3905 51.5508C76.27 51.6241 76.2304 51.7804 76.3015 51.9023C76.3725 52.0241 76.5281 52.0666 76.6512 51.9977C77.8507 51.2823 79.4148 50.2945 79.5128 48.7343C79.5873 47.523 78.4564 45.9688 77.1197 46.4803C76.8649 46.5783 76.8747 47.0017 77.1883 46.988C78.3113 46.9156 79.3189 46.2727 79.8578 45.2847C80.4147 44.2839 80.444 43.0734 79.9362 42.0468C79.4357 41.0018 78.5358 40.2021 77.4391 39.8281C76.1977 39.4432 74.8587 39.5233 73.672 40.0535C73.1487 40.2789 72.5705 40.5768 72.2726 41.0844C71.9979 41.5431 72.0672 42.1293 72.4411 42.5113C72.8122 42.8983 73.3473 43.0822 73.8778 43.0052C74.505 42.9151 75.0342 42.5427 75.5027 42.1389C77.3333 40.5709 79.0307 38.3561 79.1091 35.8434C79.1835 33.5267 77.4666 30.9591 74.9931 30.9316C74.8502 30.9316 74.7343 31.0475 74.7343 31.1904C74.7343 31.3332 74.8502 31.4491 74.9931 31.4491L74.9872 31.4471Z" fill="#1FD7F3"/>
<path d="M100.496 50.113L94.6768 58.737C94.4808 59.0134 94.9375 59.2721 95.1217 58.9977L100.943 50.3737C101.129 50.0974 100.68 49.8386 100.496 50.113Z" fill="#1FD7F3"/>
<path d="M97.7173 73.8085C100.154 71.7229 102.37 69.3927 104.33 66.8544C104.526 66.5937 104.17 66.2252 103.966 66.4898C102.004 69.0273 99.7871 71.3575 97.3508 73.4439C97.0979 73.6595 97.4645 74.0319 97.7173 73.8085Z" fill="#1FD7F3"/>
<path d="M176.69 141.408C179.529 140.385 182.188 138.917 184.567 137.061C186.943 135.214 189.017 133.01 190.716 130.527C191.677 129.119 192.508 127.626 193.197 126.068C193.33 125.766 192.883 125.503 192.75 125.807C191.548 128.517 189.924 131.018 187.936 133.218C185.952 135.42 183.638 137.301 181.076 138.794C179.635 139.632 178.12 140.337 176.551 140.901C176.241 141.013 176.374 141.514 176.69 141.401V141.408Z" fill="#1FD7F3"/>
<path d="M187.433 145.714C189.801 143.98 191.803 141.796 193.325 139.287C193.393 139.164 193.351 139.009 193.229 138.938C193.107 138.867 192.951 138.906 192.878 139.027C191.405 141.464 189.466 143.588 187.172 145.275C186.908 145.471 187.172 145.92 187.433 145.722V145.714Z" fill="#1FD7F3"/>
</svg>
